<?xml version="1.0" encoding="UTF-8"?>
<svg version="1.1" xmlns="http://www.w3.org/2000/svg" width="204" height="192">
<path d="M0 0 C67.32 0 134.64 0 204 0 C204 63.36 204 126.72 204 192 C136.68 192 69.36 192 0 192 C0 128.64 0 65.28 0 0 Z " fill="#FEFEFE" transform="translate(0,0)"/>
<path d="M0 0 C8.12476102 5.29680553 14.52298219 11.0011099 20 19 C20.72832031 20.03125 21.45664063 21.0625 22.20703125 22.125 C31.98566021 36.70108612 38.35539724 55.43642721 39 73 C39.04092773 73.9895166 39.08185547 74.9790332 39.12402344 75.99853516 C39.6692669 91.52445533 39.93097201 108.04501424 35 123 C34.34 123.66 33.68 124.32 33 125 C33.43717807 121.35684943 33.87998199 117.72846999 34.4765625 114.10742188 C36.05497793 104.2658839 36.42783706 94.57351314 36.625 84.625 C36.66330429 83.00258609 36.70236254 81.3801898 36.7421875 79.7578125 C36.83678614 75.83868964 36.92129059 71.91947282 37 68 C33.12202338 67.56613908 33.12202338 67.56613908 31.25 69.5 C30.8375 69.995 30.425 70.49 30 71 C31.98 71.99 31.98 71.99 34 73 C33.01 73.495 33.01 73.495 32 74 C32.515625 74.391875 33.03125 74.78375 33.5625 75.1875 C34.036875 75.785625 34.51125 76.38375 35 77 C34.625 79.625 34.625 79.625 34 82 C34.33 82.33 34.66 82.66 35 83 C35.09862603 84.39174359 35.1307898 85.78836143 35.1328125 87.18359375 C35.13410156 88.02857422 35.13539063 88.87355469 35.13671875 89.74414062 C35.13285156 90.63294922 35.12898438 91.52175781 35.125 92.4375 C35.12886719 93.32244141 35.13273437 94.20738281 35.13671875 95.11914062 C35.13542969 95.96541016 35.13414062 96.81167969 35.1328125 97.68359375 C35.13168457 98.46275146 35.13055664 99.24190918 35.12939453 100.04467773 C35 102 35 102 34 104 C31.36 104 28.72 104 26 104 C26.33 104.99 26.66 105.98 27 107 C28.98 107.33 30.96 107.66 33 108 C32.22095672 119.52164009 32.22095672 119.52164009 30 125 C29.34 124.67 28.68 124.34 28 124 C28.495 122.02 28.495 122.02 29 120 C28.34 120 27.68 120 27 120 C26.01 121.98 26.01 121.98 25 124 C25 122.35 25 120.7 25 119 C24.34 119 23.68 119 23 119 C22.67 120.65 22.34 122.3 22 124 C21.34 122.68 20.68 121.36 20 120 C19.505 121.485 19.505 121.485 19 123 C18.34 123 17.68 123 17 123 C16.90976563 123.83917969 16.81953125 124.67835938 16.7265625 125.54296875 C15.88922494 129.52707487 14.31786358 132.77936326 12.375 136.3125 C12.0145459 136.97185547 11.6540918 137.63121094 11.28271484 138.31054688 C5.99812782 147.7786685 0.37104435 154.33342209 -9 160 C-9.6084375 160.38671875 -10.216875 160.7734375 -10.84375 161.171875 C-16.62658118 163.39281741 -26.28538115 163.1311098 -32.0625 160.75 C-33.031875 160.1725 -34.00125 159.595 -35 159 C-35.99 158.4225 -36.98 157.845 -38 157.25 C-56.03634917 143.72273812 -61.89371057 122.47644942 -65 101 C-65.08840744 98.95194998 -65.13058878 96.90151855 -65.1328125 94.8515625 C-65.13474609 93.68786133 -65.13667969 92.52416016 -65.13867188 91.32519531 C-65.13416016 90.10413086 -65.12964844 88.88306641 -65.125 87.625 C-65.12306641 86.3781543 -65.12113281 85.13130859 -65.11914062 83.84667969 C-65.07714767 74.86252034 -64.77834988 65.95102361 -64 57 C-65.98 57.495 -65.98 57.495 -68 58 C-67.67 57.01 -67.34 56.02 -67 55 C-68.98 54.34 -70.96 53.68 -73 53 C-71.68 52.34 -70.36 51.68 -69 51 C-69.99 50.67 -70.98 50.34 -72 50 C-72 49.34 -72 48.68 -72 48 C-70.02 48.33 -68.04 48.66 -66 49 C-65.67 48.01 -65.34 47.02 -65 46 C-66.32 45.01 -67.64 44.02 -69 43 C-67.02 43.33 -65.04 43.66 -63 44 C-63.825 43.05125 -64.65 42.1025 -65.5 41.125 C-68 38.25 -68 38.25 -68 36 C-64.535 35.505 -64.535 35.505 -61 35 C-62.32 34.01 -63.64 33.02 -65 32 C-64.34 30.35 -63.68 28.7 -63 27 C-62.01 27 -61.02 27 -60 27 C-60 27.66 -60 28.32 -60 29 C-58.02 28.505 -58.02 28.505 -56 28 C-57.65 26.35 -59.3 24.7 -61 23 C-70.20937097 31.23682964 -75.18165498 47.91757584 -77 60 C-77 61.32 -77 62.64 -77 64 C-76.195625 63.505 -76.195625 63.505 -75.375 63 C-72.4608939 61.77300796 -70.13132292 61.85766714 -67 62 C-67.495 62.45375 -67.99 62.9075 -68.5 63.375 C-70.22609337 64.87635519 -70.22609337 64.87635519 -70 67 C-69.34 67 -68.68 67 -68 67 C-68.495 67.99 -68.495 67.99 -69 69 C-70.65 68.34 -72.3 67.68 -74 67 C-74 67.99 -74 68.98 -74 70 C-72.02 70.33 -70.04 70.66 -68 71 C-68 71.33 -68 71.66 -68 72 C-70.31 72 -72.62 72 -75 72 C-75 72.99 -75 73.98 -75 75 C-75.66 75 -76.32 75 -77 75 C-77.495 72.03 -77.495 72.03 -78 69 C-83.00427151 97.46429634 -77.07702496 129.42277545 -60.875 153.47265625 C-53.21385519 163.79924102 -45.29607049 170.74999354 -33.1640625 175.140625 C-31 176 -31 176 -28 178 C-40.73814641 177.2923252 -49.57729991 170.00128987 -58 161 C-77.79876573 137.96327599 -84.14426175 105.62627282 -82 76 C-79.48753478 49.8594595 -70.68798432 22.42916909 -50 5 C-35.60189006 -6.47712893 -16.53222754 -9.19838224 0 0 Z " fill="#F2F2F2" transform="translate(123,9)"/>
<path d="M0 0 C9.53690975 3.54621554 19.53973141 9.6568346 24.0234375 19.171875 C24.89875031 21.27549579 24.89875031 21.27549579 27.5625 22.0625 C30 24 30 24 30.4765625 26.5625 C30.61563116 28.54036533 30.71170516 30.52178869 30.76171875 32.50390625 C30.74929261 35.17376636 30.74929261 35.17376636 33 37 C32.979375 37.969375 32.95875 38.93875 32.9375 39.9375 C32.68924439 43.0014605 32.68924439 43.0014605 34.5 44.875 C34.995 45.24625 35.49 45.6175 36 46 C35 49 35 49 32 51 C31.52136643 53.74522548 31.52136643 53.74522548 31.56762695 57.01025391 C31.54783279 58.27141022 31.52803864 59.53256653 31.50764465 60.8319397 C31.50087436 62.21347912 31.49442755 63.59502016 31.48828125 64.9765625 C31.47144142 66.38619564 31.45329213 67.7958137 31.43388367 69.20541382 C31.38630121 72.91747322 31.35654565 76.62947152 31.33044434 80.34173584 C31.29544796 84.79472762 31.23841206 89.24748456 31.18505096 93.70028687 C31.10644026 100.46682861 31.05590918 107.23306095 31 114 C11.53 114 -7.94 114 -28 114 C-28.03738281 109.48699219 -28.07476562 104.97398437 -28.11328125 100.32421875 C-28.15138199 96.72787326 -28.19245482 93.13158908 -28.2355423 89.53530121 C-28.28022321 85.73782861 -28.31965414 81.94046688 -28.34643555 78.14282227 C-28.37242758 74.48568947 -28.41279987 70.82897338 -28.46318626 67.17209816 C-28.47988295 65.7762959 -28.49137979 64.38042151 -28.49761391 62.98453331 C-28.50722363 61.03083288 -28.53696471 59.07726273 -28.56762695 57.1237793 C-28.57873001 56.0112529 -28.58983307 54.8987265 -28.60127258 53.75248718 C-29.03953326 50.72709479 -29.60493936 49.81667134 -32 48 C-31.690625 47.29875 -31.38125 46.5975 -31.0625 45.875 C-29.87425942 43.00559647 -29.87425942 43.00559647 -29.625 39.8125 C-29 37 -29 37 -27.125 35.6875 C-26.42375 35.460625 -25.7225 35.23375 -25 35 C-23.515 34.505 -23.515 34.505 -22 34 C-22 37.3 -22 40.6 -22 44 C-23.32 44.66 -24.64 45.32 -26 46 C-26 46.66 -26 47.32 -26 48 C-21.08383208 45.70498304 -16.33236527 43.24133243 -11.7265625 40.37109375 C-10.97882568 39.91009277 -10.23108887 39.4490918 -9.46069336 38.97412109 C-7.95715754 38.0404465 -6.46287013 37.09169483 -4.97875977 36.12744141 C0.31129219 32.86107611 0.31129219 32.86107611 3.73046875 33.55078125 C4.85388672 34.26814453 4.85388672 34.26814453 6 35 C6.7321875 35.40476563 7.464375 35.80953125 8.21875 36.2265625 C8.9715625 36.68804687 9.724375 37.14953125 10.5 37.625 C11.35335937 38.14578125 12.20671875 38.6665625 13.0859375 39.203125 C14.04757813 39.79609375 15.00921875 40.3890625 16 41 C17.17957199 41.72414652 18.35926486 42.44809618 19.5390625 43.171875 C22.69551987 45.11003558 25.84850502 47.05377896 29 49 C29 48.01 29 47.02 29 46 C27.68 45.34 26.36 44.68 25 44 C25 41.36 25 38.72 25 36 C24.01 35.505 24.01 35.505 23 35 C23.495 37.475 23.495 37.475 24 40 C22.40625 41.2265625 22.40625 41.2265625 20 42 C17.59951524 40.90280873 15.66797591 39.82523332 13.5 38.375 C12.93152344 38.01792969 12.36304688 37.66085938 11.77734375 37.29296875 C8.36984717 35.10299995 5.9091287 32.9091287 3 30 C9.27 30 15.54 30 22 30 C22 30.99 22 31.98 22 33 C22.99 33 23.98 33 25 33 C25.33 30.69 25.66 28.38 26 26 C16.00037456 21.90640334 6.7354738 19.93412564 -4 19 C-4 18.67 -4 18.34 -4 18 C4.29683005 17.80323723 11.95075394 17.74056251 20 20 C15.73114617 12.93997251 10.69376595 8.92363106 3 6 C3 5.34 3 4.68 3 4 C2.01 4 1.02 4 0 4 C-0.33 4.99 -0.66 5.98 -1 7 C-3.109375 8.17578125 -3.109375 8.17578125 -5.75 9.3125 C-10.55068542 11.56196402 -12.87197591 13.79671763 -16 18 C-16.66 18 -17.32 18 -18 18 C-17.40312566 14.65750371 -16.26396123 12.53563658 -14 10 C-13.34 10 -12.68 10 -12 10 C-12 9.34 -12 8.68 -12 8 C-10.35546875 6.74609375 -10.35546875 6.74609375 -8.1875 5.4375 C-7.47980469 5.00308594 -6.77210937 4.56867187 -6.04296875 4.12109375 C-4 3 -4 3 -1 2 C-0.67 1.34 -0.34 0.68 0 0 Z " fill="#747372" transform="translate(100,27)"/>
<path d="M0 0 C8.12476102 5.29680553 14.52298219 11.0011099 20 19 C20.72832031 20.03125 21.45664063 21.0625 22.20703125 22.125 C31.98566021 36.70108612 38.35539724 55.43642721 39 73 C39.04092773 73.9895166 39.08185547 74.9790332 39.12402344 75.99853516 C39.6692669 91.52445533 39.93097201 108.04501424 35 123 C34.34 123.66 33.68 124.32 33 125 C33.43717807 121.35684943 33.87998199 117.72846999 34.4765625 114.10742188 C36.05497793 104.2658839 36.42783706 94.57351314 36.625 84.625 C36.66330429 83.00258609 36.70236254 81.3801898 36.7421875 79.7578125 C36.83678614 75.83868964 36.92129059 71.91947282 37 68 C33.12202338 67.56613908 33.12202338 67.56613908 31.25 69.5 C30.8375 69.995 30.425 70.49 30 71 C31.98 71.99 31.98 71.99 34 73 C33.01 73.495 33.01 73.495 32 74 C32.515625 74.391875 33.03125 74.78375 33.5625 75.1875 C34.036875 75.785625 34.51125 76.38375 35 77 C34.625 79.625 34.625 79.625 34 82 C34.33 82.33 34.66 82.66 35 83 C35.09862603 84.39174359 35.1307898 85.78836143 35.1328125 87.18359375 C35.13410156 88.02857422 35.13539063 88.87355469 35.13671875 89.74414062 C35.13285156 90.63294922 35.12898438 91.52175781 35.125 92.4375 C35.12886719 93.32244141 35.13273437 94.20738281 35.13671875 95.11914062 C35.13542969 95.96541016 35.13414062 96.81167969 35.1328125 97.68359375 C35.13168457 98.46275146 35.13055664 99.24190918 35.12939453 100.04467773 C35 102 35 102 34 104 C31.36 104 28.72 104 26 104 C26.33 104.99 26.66 105.98 27 107 C28.98 107.33 30.96 107.66 33 108 C32.22095672 119.52164009 32.22095672 119.52164009 30 125 C29.34 124.67 28.68 124.34 28 124 C28.495 122.02 28.495 122.02 29 120 C28.34 120 27.68 120 27 120 C26.01 121.98 26.01 121.98 25 124 C25 122.35 25 120.7 25 119 C24.34 119 23.68 119 23 119 C22.67 120.65 22.34 122.3 22 124 C21.34 122.68 20.68 121.36 20 120 C19.505 121.485 19.505 121.485 19 123 C18.34 123 17.68 123 17 123 C16.90976563 123.83917969 16.81953125 124.67835938 16.7265625 125.54296875 C15.88922494 129.52707487 14.31786358 132.77936326 12.375 136.3125 C12.0145459 136.97185547 11.6540918 137.63121094 11.28271484 138.31054688 C5.99812782 147.7786685 0.37104435 154.33342209 -9 160 C-9.6084375 160.38671875 -10.216875 160.7734375 -10.84375 161.171875 C-16.62658118 163.39281741 -26.28538115 163.1311098 -32.0625 160.75 C-33.031875 160.1725 -34.00125 159.595 -35 159 C-35.99 158.4225 -36.98 157.845 -38 157.25 C-56.03634917 143.72273812 -61.89371057 122.47644942 -65 101 C-65.08840744 98.95194998 -65.13058878 96.90151855 -65.1328125 94.8515625 C-65.13474609 93.68786133 -65.13667969 92.52416016 -65.13867188 91.32519531 C-65.13416016 90.10413086 -65.12964844 88.88306641 -65.125 87.625 C-65.12306641 86.3781543 -65.12113281 85.13130859 -65.11914062 83.84667969 C-65.07714767 74.86252034 -64.77834988 65.95102361 -64 57 C-65.98 57.495 -65.98 57.495 -68 58 C-67.67 57.01 -67.34 56.02 -67 55 C-68.98 54.34 -70.96 53.68 -73 53 C-71.68 52.34 -70.36 51.68 -69 51 C-69.99 50.67 -70.98 50.34 -72 50 C-72 49.34 -72 48.68 -72 48 C-70.02 48.33 -68.04 48.66 -66 49 C-65.67 48.01 -65.34 47.02 -65 46 C-66.32 45.01 -67.64 44.02 -69 43 C-67.02 43.33 -65.04 43.66 -63 44 C-63.825 43.05125 -64.65 42.1025 -65.5 41.125 C-68 38.25 -68 38.25 -68 36 C-64.535 35.505 -64.535 35.505 -61 35 C-62.32 34.01 -63.64 33.02 -65 32 C-64.34 30.35 -63.68 28.7 -63 27 C-62.01 27 -61.02 27 -60 27 C-60 27.66 -60 28.32 -60 29 C-58.02 28.505 -58.02 28.505 -56 28 C-57.65 26.35 -59.3 24.7 -61 23 C-70.20937097 31.23682964 -75.18165498 47.91757584 -77 60 C-77 61.32 -77 62.64 -77 64 C-76.195625 63.505 -76.195625 63.505 -75.375 63 C-72.4608939 61.77300796 -70.13132292 61.85766714 -67 62 C-67.495 62.45375 -67.99 62.9075 -68.5 63.375 C-70.22609337 64.87635519 -70.22609337 64.87635519 -70 67 C-69.34 67 -68.68 67 -68 67 C-68.495 67.99 -68.495 67.99 -69 69 C-70.65 68.34 -72.3 67.68 -74 67 C-74 67.99 -74 68.98 -74 70 C-72.02 70.33 -70.04 70.66 -68 71 C-68 71.33 -68 71.66 -68 72 C-70.31 72 -72.62 72 -75 72 C-75 72.99 -75 73.98 -75 75 C-75.66 75 -76.32 75 -77 75 C-77.495 72.03 -77.495 72.03 -78 69 C-83.00427151 97.46429634 -77.07702496 129.42277545 -60.875 153.47265625 C-53.21385519 163.79924102 -45.29607049 170.74999354 -33.1640625 175.140625 C-31 176 -31 176 -28 178 C-40.73814641 177.2923252 -49.57729991 170.00128987 -58 161 C-77.79876573 137.96327599 -84.14426175 105.62627282 -82 76 C-79.48753478 49.8594595 -70.68798432 22.42916909 -50 5 C-35.60189006 -6.47712893 -16.53222754 -9.19838224 0 0 Z M-45 26 C-51.50352407 34.07092016 -54.85582422 42.23843101 -58 52 C-58.350625 52.82757813 -58.70125 53.65515625 -59.0625 54.5078125 C-62.96034193 64.86957564 -62.20582296 77.25543991 -62.25 88.125 C-62.25918457 89.37466553 -62.26836914 90.62433105 -62.27783203 91.91186523 C-62.23996893 103.4532955 -61.48830337 114.81945703 -57 125.5625 C-56.73960938 126.22056641 -56.47921875 126.87863281 -56.2109375 127.55664062 C-55.48801015 129.37673801 -54.74474889 131.18872213 -54 133 C-53.33257634 134.66636367 -52.66556313 136.33289234 -52 138 C-51.34 138 -50.68 138 -50 138 C-49.76410156 138.87527344 -49.52820313 139.75054687 -49.28515625 140.65234375 C-46.32387321 148.36608103 -38.93417708 155.67500675 -31.46875 159.25 C-23.84897536 161.56486824 -16.86111778 160.80602334 -9.6875 157.5 C2.17352293 150.7289436 7.29874056 140.97162334 13 129 C13.53625 127.87980469 14.0725 126.75960937 14.625 125.60546875 C22.82536688 104.10280219 23.45518284 75.69715283 16 54 C15.68804687 52.93265625 15.37609375 51.8653125 15.0546875 50.765625 C10.91584933 37.06224484 3.60333074 24.30791872 -9.078125 16.9375 C-23.36260868 9.96945918 -34.76963491 15.08999527 -45 26 Z " fill="#D6D5D5" transform="translate(123,9)"/>
<path d="M0 0 C2.5 2.3125 2.5 2.3125 5 5 C5 5.99 5 6.98 5 8 C3.68 7.67 2.36 7.34 1 7 C1 6.34 1 5.68 1 5 C0.01 5 -0.98 5 -2 5 C-2.85974801 7.29294488 -2.85974801 7.29294488 -3 10 C-1.16641665 12.33454661 -1.16641665 12.33454661 1 14 C-1.64 14 -4.28 14 -7 14 C-5.02 16.31 -3.04 18.62 -1 21 C-1.33 21.66 -1.66 22.32 -2 23 C-2.66 23 -3.32 23 -4 23 C-3.34 23.66 -2.68 24.32 -2 25 C-2.99 25 -3.98 25 -5 25 C-5 25.66 -5 26.32 -5 27 C-6.98 26.67 -8.96 26.34 -11 26 C-11 26.66 -11 27.32 -11 28 C-9.35 28.33 -7.7 28.66 -6 29 C-7.98 29.99 -7.98 29.99 -10 31 C-7.525 31.99 -7.525 31.99 -5 33 C-5.33 33.66 -5.66 34.32 -6 35 C-4.02 34.505 -4.02 34.505 -2 34 C-2.0721875 34.90234375 -2.144375 35.8046875 -2.21875 36.734375 C-3.66661733 56.53299977 -4.89149897 76.73952902 0.45751953 96.03662109 C0.95948778 97.85337568 1.40236243 99.68617928 1.83984375 101.51953125 C5.39747175 115.07786469 13.52933178 129.05309622 25.75 136.4375 C32.647362 139.75353942 40.46975392 140.22392429 48 139 C62.28101159 133.53722939 69.42891603 121.22748118 75.3984375 107.87109375 C76.31195603 105.59377629 77.18902053 103.31555979 78 101 C78.66 101 79.32 101 80 101 C80.495 99.02 80.495 99.02 81 97 C81.99 98.485 81.99 98.485 83 100 C83.495 98.515 83.495 98.515 84 97 C84.66 97 85.32 97 86 97 C86.33 97.99 86.66 98.98 87 100 C87.33 99.34 87.66 98.68 88 98 C88.66 98 89.32 98 90 98 C90.33 99.65 90.66 101.3 91 103 C92.55810358 94.51017403 92.55810358 94.51017403 94 86 C92.02 86 90.04 86 88 86 C87.67 84.68 87.34 83.36 87 82 C89.64 82 92.28 82 95 82 C95.33 75.07 95.66 68.14 96 61 C95.34 60.67 94.68 60.34 94 60 C94.226875 59.236875 94.45375 58.47375 94.6875 57.6875 C94.790625 56.800625 94.89375 55.91375 95 55 C93.66621425 53.1645201 93.66621425 53.1645201 92 52 C92.33 51.67 92.66 51.34 93 51 C91.515 50.01 91.515 50.01 90 49 C91.65 47.35 93.3 45.7 95 44 C96.485 44.99 96.485 44.99 98 46 C98.29338366 48.53560439 98.39611992 50.8229875 98.36328125 53.359375 C98.36402901 54.47061737 98.36402901 54.47061737 98.36479187 55.60430908 C98.36244669 57.18138289 98.3526921 58.7584601 98.33618164 60.33544922 C98.31299772 62.69925306 98.31556555 65.06189585 98.32226562 67.42578125 C98.30472181 76.80424666 97.62007954 85.74566694 96 95 C95.87439697 95.7739209 95.74879395 96.5478418 95.61938477 97.34521484 C94.33606089 105.06412812 92.68302485 112.08340417 89 119 C88.35224609 120.28777344 88.35224609 120.28777344 87.69140625 121.6015625 C84.12186482 128.46978585 80.05505363 135.11382269 75 141 C74.34 141 73.68 141 73 141 C72.79246094 141.56589844 72.58492188 142.13179687 72.37109375 142.71484375 C70.51707798 145.80487003 67.98174411 147.56255729 65.0625 149.5625 C64.48854492 149.96017578 63.91458984 150.35785156 63.32324219 150.76757812 C58.78183832 153.77516349 54.40400918 155.44772063 49.046875 156.5625 C47.01617925 156.8025911 47.01617925 156.8025911 46 158 C43.8778002 158.12569503 41.75088655 158.17576773 39.625 158.1875 C38.46226563 158.20167969 37.29953125 158.21585938 36.1015625 158.23046875 C33 158 33 158 30 156 C28.67565052 155.31566041 27.34110059 154.65090047 26 154 C6.45285936 144.47623339 -5.56894426 128.21160096 -12.69970703 108.01855469 C-13.98485018 104.05628438 -15.03003103 100.04923554 -16 96 C-16.21269531 95.15824219 -16.42539062 94.31648438 -16.64453125 93.44921875 C-18.82628867 84.36117884 -19.181662 75.31744245 -19.1875 66 C-19.19974609 64.97132812 -19.21199219 63.94265625 -19.22460938 62.8828125 C-19.23659773 56.60091575 -18.601675 51.07750198 -17 45 C-16.67 45 -16.34 45 -16 45 C-16 47.64 -16 50.28 -16 53 C-15.34 53 -14.68 53 -14 53 C-12.98888907 49.95086772 -12.98888907 49.95086772 -14 47 C-13.67 46.34 -13.34 45.68 -13 45 C-11.35 45.33 -9.7 45.66 -8 46 C-8.33 45.67 -8.66 45.34 -9 45 C-9 44.34 -9 43.68 -9 43 C-9.99 42.67 -10.98 42.34 -12 42 C-10.02 41.505 -10.02 41.505 -8 41 C-12.64586892 41.48484276 -12.64586892 41.48484276 -17 43 C-16.03972052 28.83587769 -10.76462119 13.90575249 -3 2 C-2.01 1.34 -1.02 0.68 0 0 Z " fill="#EBEBEB" transform="translate(62,31)"/>
<path d="M0 0 C0.495 0.99 0.495 0.99 1 2 C0.3709375 1.80664062 -0.258125 1.61328125 -0.90625 1.4140625 C-3.59995272 0.5945927 -6.29913351 -0.20448616 -9 -1 C-9.6909375 -1.21269531 -10.381875 -1.42539063 -11.09375 -1.64453125 C-20.30523649 -4.26829482 -28.07018172 -3.02360514 -37 0 C-38.32979042 0.34719784 -39.66212602 0.6853858 -41 1 C-41 1.66 -41 2.32 -41 3 C-40.34 3.33 -39.68 3.66 -39 4 C-40.32 4.33 -41.64 4.66 -43 5 C-42.505 5.94875 -42.01 6.8975 -41.5 7.875 C-40 11 -40 11 -40 13 C-38.35 12.67 -36.7 12.34 -35 12 C-35 12.99 -35 13.98 -35 15 C-34.13375 14.505 -33.2675 14.01 -32.375 13.5 C-26.13767158 10.82685925 -18.27964205 10.97466909 -11.75 12.5390625 C-7.88466188 14.10935611 -4.31687368 16.4921199 -1 19 C-1 19.66 -1 20.32 -1 21 C-0.40832031 21.24234375 0.18335937 21.4846875 0.79296875 21.734375 C10.15792359 27.10472078 15.99596213 42.72624027 18.80688477 52.87255859 C26.41619742 83.00852304 24.83412594 115.19465431 9.00830078 142.32568359 C4.29369231 150.15444506 -1.18113903 155.27201204 -9 160 C-9.6084375 160.38671875 -10.216875 160.7734375 -10.84375 161.171875 C-16.62658118 163.39281741 -26.28538115 163.1311098 -32.0625 160.75 C-33.031875 160.1725 -34.00125 159.595 -35 159 C-35.99 158.4225 -36.98 157.845 -38 157.25 C-56.03634917 143.72273812 -61.89371057 122.47644942 -65 101 C-65.08840744 98.95194998 -65.13058878 96.90151855 -65.1328125 94.8515625 C-65.13474609 93.68786133 -65.13667969 92.52416016 -65.13867188 91.32519531 C-65.13416016 90.10413086 -65.12964844 88.88306641 -65.125 87.625 C-65.12306641 86.3781543 -65.12113281 85.13130859 -65.11914062 83.84667969 C-65.07714767 74.86252034 -64.77834988 65.95102361 -64 57 C-65.98 57.495 -65.98 57.495 -68 58 C-67.67 57.01 -67.34 56.02 -67 55 C-68.98 54.34 -70.96 53.68 -73 53 C-71.68 52.34 -70.36 51.68 -69 51 C-69.99 50.67 -70.98 50.34 -72 50 C-72 49.34 -72 48.68 -72 48 C-70.02 48.33 -68.04 48.66 -66 49 C-65.67 48.01 -65.34 47.02 -65 46 C-66.32 45.01 -67.64 44.02 -69 43 C-67.02 43.33 -65.04 43.66 -63 44 C-63.825 43.05125 -64.65 42.1025 -65.5 41.125 C-68 38.25 -68 38.25 -68 36 C-64.535 35.505 -64.535 35.505 -61 35 C-62.32 34.01 -63.64 33.02 -65 32 C-64.34 30.35 -63.68 28.7 -63 27 C-62.01 27 -61.02 27 -60 27 C-60 27.66 -60 28.32 -60 29 C-58.02 28.505 -58.02 28.505 -56 28 C-57.65 26.35 -59.3 24.7 -61 23 C-70.20937097 31.23682964 -75.18165498 47.91757584 -77 60 C-77 61.32 -77 62.64 -77 64 C-76.195625 63.505 -76.195625 63.505 -75.375 63 C-72.4608939 61.77300796 -70.13132292 61.85766714 -67 62 C-67.495 62.45375 -67.99 62.9075 -68.5 63.375 C-70.22609337 64.87635519 -70.22609337 64.87635519 -70 67 C-69.34 67 -68.68 67 -68 67 C-68.495 67.99 -68.495 67.99 -69 69 C-70.65 68.34 -72.3 67.68 -74 67 C-74 67.99 -74 68.98 -74 70 C-72.02 70.33 -70.04 70.66 -68 71 C-68 71.33 -68 71.66 -68 72 C-70.31 72 -72.62 72 -75 72 C-75 72.99 -75 73.98 -75 75 C-75.66 75 -76.32 75 -77 75 C-77.495 72.03 -77.495 72.03 -78 69 C-83.00427151 97.46429634 -77.07702496 129.42277545 -60.875 153.47265625 C-53.21385519 163.79924102 -45.29607049 170.74999354 -33.1640625 175.140625 C-31 176 -31 176 -28 178 C-40.73814641 177.2923252 -49.57729991 170.00128987 -58 161 C-77.79876573 137.96327599 -84.14426175 105.62627282 -82 76 C-79.48753478 49.8594595 -70.68798432 22.42916909 -50 5 C-34.95871365 -6.98982251 -17.27990135 -8.29435265 0 0 Z M-45 26 C-51.50352407 34.07092016 -54.85582422 42.23843101 -58 52 C-58.350625 52.82757813 -58.70125 53.65515625 -59.0625 54.5078125 C-62.96034193 64.86957564 -62.20582296 77.25543991 -62.25 88.125 C-62.25918457 89.37466553 -62.26836914 90.62433105 -62.27783203 91.91186523 C-62.23996893 103.4532955 -61.48830337 114.81945703 -57 125.5625 C-56.73960938 126.22056641 -56.47921875 126.87863281 -56.2109375 127.55664062 C-55.48801015 129.37673801 -54.74474889 131.18872213 -54 133 C-53.33257634 134.66636367 -52.66556313 136.33289234 -52 138 C-51.34 138 -50.68 138 -50 138 C-49.76410156 138.87527344 -49.52820313 139.75054687 -49.28515625 140.65234375 C-46.32387321 148.36608103 -38.93417708 155.67500675 -31.46875 159.25 C-23.84897536 161.56486824 -16.86111778 160.80602334 -9.6875 157.5 C2.17352293 150.7289436 7.29874056 140.97162334 13 129 C13.53625 127.87980469 14.0725 126.75960937 14.625 125.60546875 C22.82536688 104.10280219 23.45518284 75.69715283 16 54 C15.68804687 52.93265625 15.37609375 51.8653125 15.0546875 50.765625 C10.91584933 37.06224484 3.60333074 24.30791872 -9.078125 16.9375 C-23.36260868 9.96945918 -34.76963491 15.08999527 -45 26 Z " fill="#E9E8E8" transform="translate(123,9)"/>
<path d="M0 0 C9.53690975 3.54621554 19.53973141 9.6568346 24.0234375 19.171875 C24.89875031 21.27549579 24.89875031 21.27549579 27.5625 22.0625 C30 24 30 24 30.4765625 26.5625 C30.61563116 28.54036533 30.71170516 30.52178869 30.76171875 32.50390625 C30.74929261 35.17376636 30.74929261 35.17376636 33 37 C32.979375 37.969375 32.95875 38.93875 32.9375 39.9375 C32.68924439 43.0014605 32.68924439 43.0014605 34.5 44.875 C34.995 45.24625 35.49 45.6175 36 46 C35 49 35 49 32 51 C31.52136643 53.74522548 31.52136643 53.74522548 31.56762695 57.01025391 C31.54783279 58.27141022 31.52803864 59.53256653 31.50764465 60.8319397 C31.50087436 62.21347912 31.49442755 63.59502016 31.48828125 64.9765625 C31.47144142 66.38619564 31.45329213 67.7958137 31.43388367 69.20541382 C31.38630121 72.91747322 31.35654565 76.62947152 31.33044434 80.34173584 C31.29544796 84.79472762 31.23841206 89.24748456 31.18505096 93.70028687 C31.10644026 100.46682861 31.05590918 107.23306095 31 114 C11.53 114 -7.94 114 -28 114 C-28.03738281 109.48699219 -28.07476562 104.97398437 -28.11328125 100.32421875 C-28.15138199 96.72787326 -28.19245482 93.13158908 -28.2355423 89.53530121 C-28.28022321 85.73782861 -28.31965414 81.94046688 -28.34643555 78.14282227 C-28.37242758 74.48568947 -28.41279987 70.82897338 -28.46318626 67.17209816 C-28.47988295 65.7762959 -28.49137979 64.38042151 -28.49761391 62.98453331 C-28.50722363 61.03083288 -28.53696471 59.07726273 -28.56762695 57.1237793 C-28.57873001 56.0112529 -28.58983307 54.8987265 -28.60127258 53.75248718 C-29.03953326 50.72709479 -29.60493936 49.81667134 -32 48 C-31.690625 47.29875 -31.38125 46.5975 -31.0625 45.875 C-29.87425942 43.00559647 -29.87425942 43.00559647 -29.625 39.8125 C-29 37 -29 37 -27.125 35.6875 C-26.42375 35.460625 -25.7225 35.23375 -25 35 C-23.515 34.505 -23.515 34.505 -22 34 C-22 37.3 -22 40.6 -22 44 C-23.32 44.66 -24.64 45.32 -26 46 C-26 46.66 -26 47.32 -26 48 C-21.08383208 45.70498304 -16.33236527 43.24133243 -11.7265625 40.37109375 C-10.97882568 39.91009277 -10.23108887 39.4490918 -9.46069336 38.97412109 C-7.95715754 38.0404465 -6.46287013 37.09169483 -4.97875977 36.12744141 C0.31129219 32.86107611 0.31129219 32.86107611 3.73046875 33.55078125 C4.85388672 34.26814453 4.85388672 34.26814453 6 35 C6.7321875 35.40476563 7.464375 35.80953125 8.21875 36.2265625 C8.9715625 36.68804687 9.724375 37.14953125 10.5 37.625 C11.35335937 38.14578125 12.20671875 38.6665625 13.0859375 39.203125 C14.04757813 39.79609375 15.00921875 40.3890625 16 41 C17.17957199 41.72414652 18.35926486 42.44809618 19.5390625 43.171875 C22.69551987 45.11003558 25.84850502 47.05377896 29 49 C29 48.01 29 47.02 29 46 C27.68 45.34 26.36 44.68 25 44 C25 41.36 25 38.72 25 36 C24.01 35.505 24.01 35.505 23 35 C23.495 37.475 23.495 37.475 24 40 C22.40625 41.2265625 22.40625 41.2265625 20 42 C17.59951524 40.90280873 15.66797591 39.82523332 13.5 38.375 C12.93152344 38.01792969 12.36304688 37.66085938 11.77734375 37.29296875 C8.36984717 35.10299995 5.9091287 32.9091287 3 30 C9.27 30 15.54 30 22 30 C22 30.99 22 31.98 22 33 C22.99 33 23.98 33 25 33 C25.33 30.69 25.66 28.38 26 26 C16.00037456 21.90640334 6.7354738 19.93412564 -4 19 C-4 18.67 -4 18.34 -4 18 C4.29683005 17.80323723 11.95075394 17.74056251 20 20 C15.73114617 12.93997251 10.69376595 8.92363106 3 6 C3 5.34 3 4.68 3 4 C2.01 4 1.02 4 0 4 C-0.33 4.99 -0.66 5.98 -1 7 C-3.109375 8.17578125 -3.109375 8.17578125 -5.75 9.3125 C-10.55068542 11.56196402 -12.87197591 13.79671763 -16 18 C-16.66 18 -17.32 18 -18 18 C-17.40312566 14.65750371 -16.26396123 12.53563658 -14 10 C-13.34 10 -12.68 10 -12 10 C-12 9.34 -12 8.68 -12 8 C-10.35546875 6.74609375 -10.35546875 6.74609375 -8.1875 5.4375 C-7.47980469 5.00308594 -6.77210937 4.56867187 -6.04296875 4.12109375 C-4 3 -4 3 -1 2 C-0.67 1.34 -0.34 0.68 0 0 Z M-26 51 C-26 70.8 -26 90.6 -26 111 C-7.85 111 10.3 111 29 111 C29 91.2 29 71.4 29 51 C10.85 51 -7.3 51 -26 51 Z " fill="#181615" transform="translate(100,27)"/>
<path d="M0 0 C0.33 0 0.66 0 1 0 C1.29484095 8.24957036 1.54913526 16.49903357 1.75383663 24.7512846 C1.85015168 28.58453792 1.9596251 32.41640784 2.10083008 36.24829102 C2.23697434 39.95673212 2.33638578 43.66461361 2.41195869 47.3747654 C2.44672239 48.77947982 2.49400886 50.18395034 2.55491447 51.58777428 C3.09954441 64.48352345 -0.65235887 73.42565147 -9.25 83 C-15.82994135 89.03531783 -22.6067252 92.20340407 -31.5625 92.6875 C-41.01060298 92.25143371 -46.67210095 87.67049231 -53 81 C-56.1469935 77.4933501 -57.7320161 74.54360898 -59 70 C-59.66 70 -60.32 70 -61 70 C-61.042721 68.33388095 -61.04063832 66.66617115 -61 65 C-60 64 -60 64 -57.63987732 63.87974548 C-56.59396927 63.88196609 -55.54806122 63.88418671 -54.47045898 63.88647461 C-53.28931015 63.88655014 -52.10816132 63.88662567 -50.89122009 63.88670349 C-49.6058284 63.89186478 -48.32043671 63.89702606 -46.99609375 63.90234375 C-45.0338662 63.90446617 -45.0338662 63.90446617 -43.03199768 63.90663147 C-39.54837141 63.9104559 -36.06478661 63.92028554 -32.58117676 63.93133545 C-29.02873292 63.94155118 -25.47628241 63.94612944 -21.92382812 63.95117188 C-14.94920168 63.96190788 -7.97460283 63.9789834 -1 64 C-1.00222061 63.21295181 -1.00444122 62.42590363 -1.00672913 61.61500549 C-1.02673113 54.2130967 -1.04197366 46.81120092 -1.05181217 39.40927219 C-1.0570402 35.60348423 -1.06413638 31.79771852 -1.07543945 27.99194336 C-1.0862712 24.32207456 -1.09227744 20.65222722 -1.09487724 16.98234367 C-1.09673097 15.57925008 -1.1003506 14.17615771 -1.10573006 12.7730732 C-1.11294419 10.8143032 -1.11340809 8.8555118 -1.11352539 6.89672852 C-1.115746 5.77976089 -1.11796661 4.66279327 -1.12025452 3.51197815 C-1 1 -1 1 0 0 Z " fill="#ECECEC" transform="translate(132,77)"/>
<path d="M0 0 C0.99 0 1.98 0 3 0 C3 0.66 3 1.32 3 2 C3.56847656 2.13535156 4.13695312 2.27070312 4.72265625 2.41015625 C10.90696904 4.13433027 15.19607088 6.7356338 19 12 C19.495 13.98 19.495 13.98 20 16 C16.04 15.67 12.08 15.34 8 15 C9.68029297 15.50660156 9.68029297 15.50660156 11.39453125 16.0234375 C12.86726636 16.47370046 14.33991831 16.92423553 15.8125 17.375 C16.55048828 17.59671875 17.28847656 17.8184375 18.04882812 18.046875 C18.76103516 18.26601563 19.47324219 18.48515625 20.20703125 18.7109375 C20.8616333 18.90993652 21.51623535 19.10893555 22.19067383 19.31396484 C24 20 24 20 27 22 C26.34 24.31 25.68 26.62 25 29 C24.01 29 23.02 29 22 29 C22 28.01 22 27.02 22 26 C16.06 26.33 10.12 26.66 4 27 C6.59662632 28.70020756 9.20113556 30.38520917 11.8125 32.0625 C12.55048828 32.54783203 13.28847656 33.03316406 14.04882812 33.53320312 C14.76103516 33.98759766 15.47324219 34.44199219 16.20703125 34.91015625 C16.8616333 35.33433838 17.51623535 35.75852051 18.19067383 36.19555664 C20.16851042 37.31848044 20.16851042 37.31848044 23 36 C23 34.35 23 32.7 23 31 C23.99 31.33 24.98 31.66 26 32 C25.90234375 34.01822917 25.8046875 36.03645833 25.70703125 38.0546875 C25.80371094 38.69664063 25.90039062 39.33859375 26 40 C26.99 40.66 27.98 41.32 29 42 C29 42.99 29 43.98 29 45 C24.12678795 43.2851719 19.85706962 40.69148004 15.4375 38.0625 C14.68275391 37.61970703 13.92800781 37.17691406 13.15039062 36.72070312 C7.29667458 33.26004809 7.29667458 33.26004809 4.78515625 31.05859375 C3.01656009 29.73255339 3.01656009 29.73255339 0.8203125 30.5 C-0.11039063 30.995 -1.04109375 31.49 -2 32 C-3.00788574 32.53560547 -3.00788574 32.53560547 -4.03613281 33.08203125 C-6.41384112 34.36288309 -8.77039837 35.6771901 -11.125 37 C-11.93582031 37.45117188 -12.74664062 37.90234375 -13.58203125 38.3671875 C-16.79764679 40.16368015 -19.93301981 41.95534654 -23 44 C-23.99 44 -24.98 44 -26 44 C-26 43.34 -26 42.68 -26 42 C-25.01 41.34 -24.02 40.68 -23 40 C-22.63637182 37.79274927 -22.63637182 37.79274927 -22.8125 35.375 C-22.83957031 34.55773437 -22.86664063 33.74046875 -22.89453125 32.8984375 C-22.92933594 32.27195313 -22.96414062 31.64546875 -23 31 C-24.65 31.99 -26.3 32.98 -28 34 C-28 22 -28 22 -24.6875 18.6875 C-23.800625 18.130625 -22.91375 17.57375 -22 17 C-20.62631655 15.36643049 -19.28062485 13.7074998 -18 12 C-18 12.66 -18 13.32 -18 14 C-16.9171875 12.88625 -16.9171875 12.88625 -15.8125 11.75 C-12.18317065 8.20132242 -8.96571319 5.29978089 -4.25 3.375 C-0.91980434 2.38084689 -0.91980434 2.38084689 0 0 Z " fill="#211F1E" transform="translate(100,31)"/>
<path d="M0 0 C18.15 0 36.3 0 55 0 C55 0.33 55 0.66 55 1 C50.38 1.33 45.76 1.66 41 2 C41 3.98 41 5.96 41 8 C41.99 8 42.98 8 44 8 C44 8.99 44 9.98 44 11 C33.11 11 22.22 11 11 11 C11.09691814 15.93007276 11.19963418 20.859301 11.31738281 25.78881836 C11.35566993 27.46582634 11.39052331 29.14291638 11.421875 30.82006836 C11.46753179 33.23060432 11.5255241 35.64057557 11.5859375 38.05078125 C11.59748871 38.80087967 11.60903992 39.55097809 11.62094116 40.32380676 C11.72695459 44.06127713 11.87619082 45.81428623 14 49 C20.14997326 50.93610269 26.59981898 51.24151626 33 51 C32.67 50.34 32.34 49.68 32 49 C31.960008 47.00039988 31.95653201 44.99952758 32 43 C32.33 43.66 32.66 44.32 33 45 C35.97 45 38.94 45 42 45 C42 45.99 42 46.98 42 48 C42.66 47.34 43.32 46.68 44 46 C44.33 46.33 44.66 46.66 45 47 C45.33 32.48 45.66 17.96 46 3 C47.32 3 48.64 3 50 3 C50 20.49 50 37.98 50 56 C35.15 56 20.3 56 5 56 C5 38.18 5 20.36 5 2 C3.68 1.67 2.36 1.34 1 1 C1 20.47 1 39.94 1 60 C0.67 60 0.34 60 0 60 C0 40.2 0 20.4 0 0 Z " fill="#EBEBEB" transform="translate(74,78)"/>
<path d="M0 0 C12.60974235 4.07962253 21.02452278 18.44605493 26.87548828 29.61816406 C32.90491682 42.38913775 37.48017213 56.83618443 38 71 C38.04092773 71.9895166 38.08185547 72.9790332 38.12402344 73.99853516 C38.6692669 89.52445533 38.93097201 106.04501424 34 121 C33.34 121.66 32.68 122.32 32 123 C32.43717807 119.35684943 32.87998199 115.72846999 33.4765625 112.10742188 C35.05497793 102.2658839 35.42783706 92.57351314 35.625 82.625 C35.66330429 81.00258609 35.70236254 79.3801898 35.7421875 77.7578125 C35.83678614 73.83868964 35.92129059 69.91947282 36 66 C32.12202338 65.56613908 32.12202338 65.56613908 30.25 67.5 C29.8375 67.995 29.425 68.49 29 69 C30.32 69.66 31.64 70.32 33 71 C32.01 71.495 32.01 71.495 31 72 C31.515625 72.391875 32.03125 72.78375 32.5625 73.1875 C33.036875 73.785625 33.51125 74.38375 34 75 C33.625 77.625 33.625 77.625 33 80 C33.33 80.33 33.66 80.66 34 81 C34.09862603 82.39174359 34.1307898 83.78836143 34.1328125 85.18359375 C34.13474609 86.45106445 34.13474609 86.45106445 34.13671875 87.74414062 C34.13285156 88.63294922 34.12898438 89.52175781 34.125 90.4375 C34.13080078 91.76491211 34.13080078 91.76491211 34.13671875 93.11914062 C34.13542969 93.96541016 34.13414062 94.81167969 34.1328125 95.68359375 C34.13168457 96.46275146 34.13055664 97.24190918 34.12939453 98.04467773 C34 100 34 100 33 102 C30.36 102 27.72 102 25 102 C25.33 102.99 25.66 103.98 26 105 C27.98 105.33 29.96 105.66 32 106 C31.22095672 117.52164009 31.22095672 117.52164009 29 123 C28.34 122.67 27.68 122.34 27 122 C27.33 120.68 27.66 119.36 28 118 C27.34 118 26.68 118 26 118 C25.34 119.32 24.68 120.64 24 122 C24 120.35 24 118.7 24 117 C23.34 117 22.68 117 22 117 C21.67 118.65 21.34 120.3 21 122 C20.34 120.68 19.68 119.36 19 118 C18.34 118.99 17.68 119.98 17 121 C17.13277344 120.22398437 17.26554687 119.44796875 17.40234375 118.6484375 C21.35101397 94.54348333 22.56232722 72.28761021 15.70703125 48.62109375 C14.83280973 44.1437272 14.70898962 40.00106609 17.25 36.0625 C19.58371852 34.64559947 21.32136078 34.78281304 24 35 C24.66 36.65 25.32 38.3 26 40 C25.01 40.495 25.01 40.495 24 41 C24 39.68 24 38.36 24 37 C21.525 37.495 21.525 37.495 19 38 C19 38.99 19 39.98 19 41 C19.66 41.33 20.32 41.66 21 42 C21 42.66 21 43.32 21 44 C21.94875 43.95875 22.8975 43.9175 23.875 43.875 C27 44 27 44 29 46 C29 32.58492235 17.70785644 17.52362631 8.75 8.5 C7.17301541 6.99332683 5.59013895 5.4927835 4 4 C2.66212383 2.67122503 1.32723122 1.33940765 0 0 Z " fill="#DCDCDC" transform="translate(124,11)"/>
<path d="M0 0 C1.2684375 0.9590625 1.2684375 0.9590625 2.5625 1.9375 C2.5625 2.5975 2.5625 3.2575 2.5625 3.9375 C3.15417969 4.17984375 3.74585937 4.4221875 4.35546875 4.671875 C13.72042359 10.04222078 19.55846213 25.66374027 22.36938477 35.81005859 C29.97869742 65.94602304 28.39662594 98.13215431 12.57080078 125.26318359 C7.85619231 133.09194506 2.38136097 138.20951204 -5.4375 142.9375 C-6.35015625 143.51757812 -6.35015625 143.51757812 -7.28125 144.109375 C-13.06408118 146.33031741 -22.72288115 146.0686098 -28.5 143.6875 C-29.469375 143.11 -30.43875 142.5325 -31.4375 141.9375 C-32.4275 141.36 -33.4175 140.7825 -34.4375 140.1875 C-52.47843914 126.65679565 -58.32221551 105.41584601 -61.4375 83.9375 C-61.65307539 79.41838774 -61.62262281 74.89878548 -61.625 70.375 C-61.64336914 68.57579102 -61.64336914 68.57579102 -61.66210938 66.74023438 C-61.69721002 45.05973554 -56.77133251 22.17529207 -41.4375 5.9375 C-29.22258471 -5.97321242 -15.1182839 -9.32235982 0 0 Z M-41.4375 8.9375 C-47.94102407 17.00842016 -51.29332422 25.17593101 -54.4375 34.9375 C-54.788125 35.76507813 -55.13875 36.59265625 -55.5 37.4453125 C-59.39784193 47.80707564 -58.64332296 60.19293991 -58.6875 71.0625 C-58.69668457 72.31216553 -58.70586914 73.56183105 -58.71533203 74.84936523 C-58.67746893 86.3907955 -57.92580337 97.75695703 -53.4375 108.5 C-53.17710938 109.15806641 -52.91671875 109.81613281 -52.6484375 110.49414062 C-51.92551015 112.31423801 -51.18224889 114.12622213 -50.4375 115.9375 C-49.77007634 117.60386367 -49.10306313 119.27039234 -48.4375 120.9375 C-47.7775 120.9375 -47.1175 120.9375 -46.4375 120.9375 C-46.20160156 121.81277344 -45.96570313 122.68804687 -45.72265625 123.58984375 C-42.76137321 131.30358103 -35.37167708 138.61250675 -27.90625 142.1875 C-20.28647536 144.50236824 -13.29861778 143.74352334 -6.125 140.4375 C5.73602293 133.6664436 10.86124056 123.90912334 16.5625 111.9375 C17.09875 110.81730469 17.635 109.69710937 18.1875 108.54296875 C26.38786688 87.04030219 27.01768284 58.63465283 19.5625 36.9375 C19.25054687 35.87015625 18.93859375 34.8028125 18.6171875 33.703125 C14.47834933 19.99974484 7.16583074 7.24541872 -5.515625 -0.125 C-19.80010868 -7.09304082 -31.20713491 -1.97250473 -41.4375 8.9375 Z " fill="#2C2B2A" transform="translate(119.4375,26.0625)"/>
<path d="M0 0 C2.64 0 5.28 0 8 0 C6.68 0.33 5.36 0.66 4 1 C4 18.82 4 36.64 4 55 C18.85 55 33.7 55 49 55 C49 37.51 49 20.02 49 2 C47.68 2 46.36 2 45 2 C45 18.5 45 35 45 52 C44.67 52 44.34 52 44 52 C42.96514367 46.90807713 42.86990033 42.05052659 42.90234375 36.8828125 C42.9037587 36.02565643 42.90517365 35.16850037 42.90663147 34.28536987 C42.91219978 31.5652101 42.92474636 28.84513462 42.9375 26.125 C42.9425191 24.27343869 42.94708129 22.42187609 42.95117188 20.5703125 C42.96215883 16.04684285 42.97940148 11.52343568 43 7 C42.01 7 41.02 7 40 7 C39.505 3.535 39.505 3.535 39 0 C43.95 0 48.9 0 54 0 C54 19.47 54 38.94 54 59 C36.18 59 18.36 59 0 59 C0 39.53 0 20.06 0 0 Z " fill="#ECECEC" transform="translate(75,79)"/>
<path d="M0 0 C14.64637551 10.88949852 26.46627455 27.35581943 30.3125 45.4375 C28.8275 45.9325 28.8275 45.9325 27.3125 46.4375 C26.9825 45.7775 26.6525 45.1175 26.3125 44.4375 C23.28315509 43.77977572 23.28315509 43.77977572 20.3125 43.4375 C20.3125 42.7775 20.3125 42.1175 20.3125 41.4375 C19.3225 41.1075 18.3325 40.7775 17.3125 40.4375 C17.6425 39.1175 17.9725 37.7975 18.3125 36.4375 C19.9625 36.4375 21.6125 36.4375 23.3125 36.4375 C23.3125 36.1075 23.3125 35.7775 23.3125 35.4375 C21.6625 35.1075 20.0125 34.7775 18.3125 34.4375 C18.8075 33.4475 18.8075 33.4475 19.3125 32.4375 C19.9725 32.4375 20.6325 32.4375 21.3125 32.4375 C21.3125 31.7775 21.3125 31.1175 21.3125 30.4375 C20.3225 30.4375 19.3325 30.4375 18.3125 30.4375 C18.3125 28.4575 18.3125 26.4775 18.3125 24.4375 C16.3325 23.7775 14.3525 23.1175 12.3125 22.4375 C12.6425 20.1275 12.9725 17.8175 13.3125 15.4375 C9.36522412 15.25807837 6.7144487 15.34399311 3.3125 17.4375 C2.6525 16.7775 1.9925 16.1175 1.3125 15.4375 C1.6875 13.375 1.6875 13.375 2.3125 11.4375 C2.3125 11.1075 2.3125 10.7775 2.3125 10.4375 C1.6525 9.7775 0.9925 9.1175 0.3125 8.4375 C-0.3125 5.8125 -0.3125 5.8125 -0.6875 3.4375 C-2.6675 3.4375 -4.6475 3.4375 -6.6875 3.4375 C-7.0175 4.4275 -7.3475 5.4175 -7.6875 6.4375 C-8.0175 6.4375 -8.3475 6.4375 -8.6875 6.4375 C-9.1825 3.9625 -9.1825 3.9625 -9.6875 1.4375 C-10.3475 2.4275 -11.0075 3.4175 -11.6875 4.4375 C-12.6775 2.7875 -13.6675 1.1375 -14.6875 -0.5625 C-15.3475 1.0875 -16.0075 2.7375 -16.6875 4.4375 C-17.0175 4.4375 -17.3475 4.4375 -17.6875 4.4375 C-17.6875 1.7975 -17.6875 -0.8425 -17.6875 -3.5625 C-18.3475 -3.5625 -19.0075 -3.5625 -19.6875 -3.5625 C-19.6875 -2.2425 -19.6875 -0.9225 -19.6875 0.4375 C-21.0075 0.4375 -22.3275 0.4375 -23.6875 0.4375 C-23.6875 -0.8825 -23.6875 -2.2025 -23.6875 -3.5625 C-24.3475 -3.5625 -25.0075 -3.5625 -25.6875 -3.5625 C-26.0175 -0.5925 -26.3475 2.3775 -26.6875 5.4375 C-27.3475 4.7775 -28.0075 4.1175 -28.6875 3.4375 C-29.0175 4.0975 -29.3475 4.7575 -29.6875 5.4375 C-31.0075 5.1075 -32.3275 4.7775 -33.6875 4.4375 C-33.6875 2.7875 -33.6875 1.1375 -33.6875 -0.5625 C-34.62173645 2.44781744 -34.73199911 3.30400268 -33.6875 6.4375 C-36.33488916 7.8981285 -37.58198334 8.4375 -40.6875 8.4375 C-40.3575 7.4475 -40.0275 6.4575 -39.6875 5.4375 C-39.0275 5.4375 -38.3675 5.4375 -37.6875 5.4375 C-37.6875 4.7775 -37.6875 4.1175 -37.6875 3.4375 C-39.3375 4.0975 -40.9875 4.7575 -42.6875 5.4375 C-42.3575 4.4475 -42.0275 3.4575 -41.6875 2.4375 C-41.0275 2.4375 -40.3675 2.4375 -39.6875 2.4375 C-39.6875 1.7775 -39.6875 1.1175 -39.6875 0.4375 C-40.6775 0.4375 -41.6675 0.4375 -42.6875 0.4375 C-42.6875 -0.2225 -42.6875 -0.8825 -42.6875 -1.5625 C-41.10550369 -2.21160154 -39.52184276 -2.85664694 -37.9375 -3.5 C-37.05578125 -3.85964844 -36.1740625 -4.21929687 -35.265625 -4.58984375 C-23.684652 -8.95902902 -10.41592967 -6.43995651 0 0 Z " fill="#F0F0F0" transform="translate(124.6875,11.5625)"/>
<path d="M0 0 C1.32 0 2.64 0 4 0 C4 16.5 4 33 4 50 C16.21 50 28.42 50 41 50 C41 33.5 41 17 41 0 C42.32 0 43.64 0 45 0 C45 17.49 45 34.98 45 53 C30.15 53 15.3 53 0 53 C0 35.51 0 18.02 0 0 Z " fill="#343333" transform="translate(79,81)"/>
<path d="M0 0 C9.53690975 3.54621554 19.53973141 9.6568346 24.0234375 19.171875 C24.89875031 21.27549579 24.89875031 21.27549579 27.5625 22.0625 C30 24 30 24 30.4765625 26.5625 C30.61563116 28.54036533 30.71170516 30.52178869 30.76171875 32.50390625 C30.74929261 35.17376636 30.74929261 35.17376636 33 37 C32.979375 37.969375 32.95875 38.93875 32.9375 39.9375 C32.68924439 43.0014605 32.68924439 43.0014605 34.5 44.875 C34.995 45.24625 35.49 45.6175 36 46 C35.67 46.99 35.34 47.98 35 49 C34.01 49.33 33.02 49.66 32 50 C31.01 49.34 30.02 48.68 29 48 C29 47.34 29 46.68 29 46 C27.68 45.34 26.36 44.68 25 44 C25 41.36 25 38.72 25 36 C24.01 35.505 24.01 35.505 23 35 C23.495 37.475 23.495 37.475 24 40 C22.40625 41.2265625 22.40625 41.2265625 20 42 C17.59951524 40.90280873 15.66797591 39.82523332 13.5 38.375 C12.64728516 37.83939453 12.64728516 37.83939453 11.77734375 37.29296875 C8.36984717 35.10299995 5.9091287 32.9091287 3 30 C9.27 30 15.54 30 22 30 C22 30.99 22 31.98 22 33 C22.99 33 23.98 33 25 33 C25.33 30.69 25.66 28.38 26 26 C16.00037456 21.90640334 6.7354738 19.93412564 -4 19 C-4 18.67 -4 18.34 -4 18 C4.29683005 17.80323723 11.95075394 17.74056251 20 20 C15.73114617 12.93997251 10.69376595 8.92363106 3 6 C3 5.34 3 4.68 3 4 C2.01 4 1.02 4 0 4 C-0.33 4.99 -0.66 5.98 -1 7 C-3.109375 8.17578125 -3.109375 8.17578125 -5.75 9.3125 C-10.55068542 11.56196402 -12.87197591 13.79671763 -16 18 C-16.66 18 -17.32 18 -18 18 C-17.40312566 14.65750371 -16.26396123 12.53563658 -14 10 C-13.34 10 -12.68 10 -12 10 C-12 9.34 -12 8.68 -12 8 C-10.35546875 6.74609375 -10.35546875 6.74609375 -8.1875 5.4375 C-7.47980469 5.00308594 -6.77210937 4.56867187 -6.04296875 4.12109375 C-4 3 -4 3 -1 2 C-0.67 1.34 -0.34 0.68 0 0 Z " fill="#1E1C1C" transform="translate(100,27)"/>
<path d="M0 0 C0.495 0.99 0.495 0.99 1 2 C0.3709375 1.80664062 -0.258125 1.61328125 -0.90625 1.4140625 C-3.59995272 0.5945927 -6.29913351 -0.20448616 -9 -1 C-9.6909375 -1.21269531 -10.381875 -1.42539063 -11.09375 -1.64453125 C-21.01297677 -4.46988478 -30.27705588 -3.27743526 -39.5 1.21875 C-55.17711458 10.03712695 -64.47433285 23.58915558 -71 40 C-71.36867188 40.92683594 -71.73734375 41.85367188 -72.1171875 42.80859375 C-74.75502655 49.74976877 -77 56.52882677 -77 64 C-76.195625 63.505 -76.195625 63.505 -75.375 63 C-72.4608939 61.77300796 -70.13132292 61.85766714 -67 62 C-67.495 62.45375 -67.99 62.9075 -68.5 63.375 C-70.22609337 64.87635519 -70.22609337 64.87635519 -70 67 C-69.34 67 -68.68 67 -68 67 C-68.495 67.99 -68.495 67.99 -69 69 C-70.65 68.34 -72.3 67.68 -74 67 C-74 67.99 -74 68.98 -74 70 C-72.02 70.33 -70.04 70.66 -68 71 C-68 71.33 -68 71.66 -68 72 C-70.31 72 -72.62 72 -75 72 C-75 72.99 -75 73.98 -75 75 C-75.66 75 -76.32 75 -77 75 C-77.495 72.03 -77.495 72.03 -78 69 C-83.00427151 97.46429634 -77.07702496 129.42277545 -60.875 153.47265625 C-53.21385519 163.79924102 -45.29607049 170.74999354 -33.1640625 175.140625 C-31 176 -31 176 -28 178 C-40.73814641 177.2923252 -49.57729991 170.00128987 -58 161 C-77.79876573 137.96327599 -84.14426175 105.62627282 -82 76 C-79.48753478 49.8594595 -70.68798432 22.42916909 -50 5 C-34.95871365 -6.98982251 -17.27990135 -8.29435265 0 0 Z " fill="#747373" transform="translate(123,9)"/>
<path d="M0 0 C2.42255047 1.32763396 4.81451928 2.66229533 7.16796875 4.109375 C8.02519531 4.63273437 8.88242188 5.15609375 9.765625 5.6953125 C10.66152344 6.24445313 11.55742188 6.79359375 12.48046875 7.359375 C14.35434304 8.48624906 16.2292957 9.61133241 18.10546875 10.734375 C19.56380208 11.609375 21.02213542 12.484375 22.48046875 13.359375 C22.15046875 14.019375 21.82046875 14.679375 21.48046875 15.359375 C5.97046875 15.359375 -9.53953125 15.359375 -25.51953125 15.359375 C-25.84953125 14.699375 -26.17953125 14.039375 -26.51953125 13.359375 C-25.69545776 12.88310669 -25.69545776 12.88310669 -24.85473633 12.3972168 C-22.34692413 10.9475242 -19.83947475 9.4972052 -17.33203125 8.046875 C-16.46771484 7.54736328 -15.60339844 7.04785156 -14.71289062 6.53320312 C-13.87177734 6.04658203 -13.03066406 5.55996094 -12.1640625 5.05859375 C-10.94130615 4.35935791 -10.94130615 4.35935791 -9.69384766 3.64599609 C-7.37131817 2.31133954 -7.37131817 2.31133954 -4.71875 0.37890625 C-2.51953125 -0.640625 -2.51953125 -0.640625 0 0 Z " fill="#22201F" transform="translate(103.51953125,60.640625)"/>
<path d="M0 0 C0.99 1.0209375 0.99 1.0209375 2 2.0625 C8.10114255 8.14630976 14.20341225 13.24608738 22 17 C21.01 17 20.02 17 19 17 C19.99 19.31 20.98 21.62 22 24 C22.66 23.01 23.32 22.02 24 21 C24.99 21 25.98 21 27 21 C27.495 24.96 27.495 24.96 28 29 C27.34 29 26.68 29 26 29 C26 27.02 26 25.04 26 23 C25.34 23 24.68 23 24 23 C23.855625 23.61875 23.71125 24.2375 23.5625 24.875 C23 27 23 27 22 29 C19.36 28.34 16.72 27.68 14 27 C14 25.68 14 24.36 14 23 C13.67 23.66 13.34 24.32 13 25 C12.34 24.67 11.68 24.34 11 24 C10.34 23.835 9.68 23.67 9 23.5 C7 23 7 23 5 22 C5 21.01 5 20.02 5 19 C3.35 18.67 1.7 18.34 0 18 C0 16.35 0 14.7 0 13 C-0.99 13.33 -1.98 13.66 -3 14 C-3 13.34 -3 12.68 -3 12 C-3.66 12 -4.32 12 -5 12 C-5 10.68 -5 9.36 -5 8 C-5.99 8 -6.98 8 -8 8 C-7.195625 7.38125 -6.39125 6.7625 -5.5625 6.125 C-2.96125481 4.25835959 -2.96125481 4.25835959 -2 2 C-1.34 2 -0.68 2 0 2 C0 1.34 0 0.68 0 0 Z " fill="#E6E6E6" transform="translate(73,154)"/>
<path d="M0 0 C2.31 0 4.62 0 7 0 C7.04943465 4.78717542 7.08573582 9.57420227 7.10986328 14.36157227 C7.11992142 15.99017932 7.13356958 17.61876832 7.15087891 19.24731445 C7.17513574 21.58809872 7.18648483 23.92864424 7.1953125 26.26953125 C7.20563507 26.99775589 7.21595764 27.72598053 7.22659302 28.47627258 C7.22742249 32.21275069 7.12883296 33.80675056 5 37 C4.34 36.67 3.68 36.34 3 36 C3.66 35.01 4.32 34.02 5 33 C3.02 33 1.04 33 -1 33 C-1.12375 32.195625 -1.2475 31.39125 -1.375 30.5625 C-1.58125 29.716875 -1.7875 28.87125 -2 28 C-2.66 27.67 -3.32 27.34 -4 27 C-4.33 27.99 -4.66 28.98 -5 30 C-5.66 28.02 -6.32 26.04 -7 24 C-8.32 24 -9.64 24 -11 24 C-11 22.02 -11 20.04 -11 18 C-10.34 18 -9.68 18 -9 18 C-9.495 17.38125 -9.99 16.7625 -10.5 16.125 C-12 14 -12 14 -12 12 C-9.6875 11.6875 -9.6875 11.6875 -7 12 C-5.18116991 14.3832946 -4 15.95818337 -4 19 C-3.34 19 -2.68 19 -2 19 C-2 15.04 -2 11.08 -2 7 C-1.67 7.99 -1.34 8.98 -1 10 C-0.01 10.33 0.98 10.66 2 11 C2 16.94 2 22.88 2 29 C2.66 29 3.32 29 4 29 C4.0270203 26.24993392 4.04684883 23.50013454 4.0625 20.75 C4.07087891 19.97269531 4.07925781 19.19539063 4.08789062 18.39453125 C4.09111328 17.64042969 4.09433594 16.88632813 4.09765625 16.109375 C4.10289307 15.41811523 4.10812988 14.72685547 4.11352539 14.01464844 C3.99437971 11.90026102 3.57618237 10.03358485 3 8 C2.01 8 1.02 8 0 8 C0 5.36 0 2.72 0 0 Z " fill="#7A7979" transform="translate(111,90)"/>
<path d="M0 0 C14.19 0 28.38 0 43 0 C43.495 1.98 43.495 1.98 44 4 C43.34 3.67 42.68 3.34 42 3 C40.62451844 2.91691362 39.24514204 2.89263984 37.8671875 2.90234375 C37.06152344 2.90556641 36.25585938 2.90878906 35.42578125 2.91210938 C34.16314453 2.92467773 34.16314453 2.92467773 32.875 2.9375 C31.60076172 2.94426758 31.60076172 2.94426758 30.30078125 2.95117188 C28.20049091 2.96297126 26.1002367 2.98090694 24 3 C26.59356629 4.70424172 29.20135036 6.38534714 31.8125 8.0625 C32.55048828 8.54783203 33.28847656 9.03316406 34.04882812 9.53320312 C34.76103516 9.98759766 35.47324219 10.44199219 36.20703125 10.91015625 C36.8616333 11.33433838 37.51623535 11.75852051 38.19067383 12.19555664 C40.16851042 13.31848044 40.16851042 13.31848044 43 12 C43 10.35 43 8.7 43 7 C43.99 7.33 44.98 7.66 46 8 C45.90234375 10.01822917 45.8046875 12.03645833 45.70703125 14.0546875 C45.80371094 14.69664063 45.90039062 15.33859375 46 16 C46.99 16.66 47.98 17.32 49 18 C49 18.99 49 19.98 49 21 C44.12678795 19.2851719 39.85706962 16.69148004 35.4375 14.0625 C34.68275391 13.61970703 33.92800781 13.17691406 33.15039062 12.72070312 C27.29667458 9.26004809 27.29667458 9.26004809 24.78515625 7.05859375 C23.01656009 5.73255339 23.01656009 5.73255339 20.8203125 6.5 C19.88960937 6.995 18.95890625 7.49 18 8 C17.32807617 8.35707031 16.65615234 8.71414062 15.96386719 9.08203125 C13.58615888 10.36288309 11.22960163 11.6771901 8.875 13 C7.65876953 13.67675781 7.65876953 13.67675781 6.41796875 14.3671875 C3.20235321 16.16368015 0.06698019 17.95534654 -3 20 C-3.99 20 -4.98 20 -6 20 C-6 19.34 -6 18.68 -6 18 C-5.01 17.34 -4.02 16.68 -3 16 C-2.63702064 14.02252878 -2.63702064 14.02252878 -2.8125 11.875 C-2.874375 10.59625 -2.93625 9.3175 -3 8 C-1.68 7.67 -0.36 7.34 1 7 C0.67 8.65 0.34 10.3 0 12 C3.88110531 12 4.62315943 11.92355621 7.671875 10.03125 C8.5705127 9.48307617 8.5705127 9.48307617 9.48730469 8.92382812 C10.23399414 8.45396484 10.98068359 7.98410156 11.75 7.5 C14.1425 6.015 16.535 4.53 19 3 C13.06 2.67 7.12 2.34 1 2 C1 2.99 1 3.98 1 5 C0.34 5 -0.32 5 -1 5 C-0.67 3.35 -0.34 1.7 0 0 Z " fill="#D2D2D2" transform="translate(80,55)"/>
<path d="M0 0 C0.99 0 1.98 0 3 0 C3 0.66 3 1.32 3 2 C3.85271484 2.20302734 3.85271484 2.20302734 4.72265625 2.41015625 C10.90696904 4.13433027 15.19607088 6.7356338 19 12 C19.495 13.98 19.495 13.98 20 16 C17.03 15.67 14.06 15.34 11 15 C11 14.34 11 13.68 11 13 C8.02016976 13.11519181 5.04154208 13.24190802 2.0625 13.375 C0.81629883 13.42140625 0.81629883 13.42140625 -0.45507812 13.46875 C-6.18247369 13.73617703 -11.43358471 14.61822587 -17 16 C-15.61168381 10.75524996 -12.31482257 7.9918409 -8 5 C-5.70451118 3.86810216 -3.37932139 2.95172856 -1 2 C-0.67 1.34 -0.34 0.68 0 0 Z " fill="#EFEFEF" transform="translate(100,31)"/>
<path d="M0 0 C7.26 0 14.52 0 22 0 C22 0.33 22 0.66 22 1 C20.02 1 18.04 1 16 1 C16 1.66 16 2.32 16 3 C15.34 3 14.68 3 14 3 C14 5.31 14 7.62 14 10 C13.01 10 12.02 10 11 10 C11.33 11.32 11.66 12.64 12 14 C10.68 14.33 9.36 14.66 8 15 C8 15.66 8 16.32 8 17 C5.5 18.625 5.5 18.625 3 20 C3.33 21.98 3.66 23.96 4 26 C2.68 25.67 1.36 25.34 0 25 C0 16.75 0 8.5 0 0 Z " fill="#F8F8F8" transform="translate(87,91)"/>
<path d="M0 0 C1.32 0 2.64 0 4 0 C4 16.83 4 33.66 4 51 C16.54 51 29.08 51 42 51 C42 51.33 42 51.66 42 52 C28.14 52 14.28 52 0 52 C0 34.84 0 17.68 0 0 Z " fill="#221F1F" transform="translate(79,81)"/>
<path d="M0 0 C0.66 0 1.32 0 2 0 C2 20.79 2 41.58 2 63 C-17.47 63 -36.94 63 -57 63 C-53.65383108 60.76922072 -52.60406041 60.75475963 -48.70239258 60.77294922 C-47.60640747 60.77319092 -46.51042236 60.77343262 -45.38122559 60.77368164 C-43.65531189 60.78902954 -43.65531189 60.78902954 -41.89453125 60.8046875 C-40.30674866 60.80770874 -40.30674866 60.80770874 -38.68688965 60.81079102 C-34.72871575 60.8212635 -30.77060357 60.84918603 -26.8125 60.875 C-13.5403125 60.936875 -13.5403125 60.936875 0 61 C0 40.87 0 20.74 0 0 Z " fill="#070404" transform="translate(129,78)"/>
<path d="M0 0 C18.15 0 36.3 0 55 0 C55 0.33 55 0.66 55 1 C50.05 1 45.1 1 40 1 C40 3.97 40 6.94 40 10 C39.34 10 38.68 10 38 10 C38 7.03 38 4.06 38 1 C37.34 1 36.68 1 36 1 C36 1.66 36 2.32 36 3 C35.01 3 34.02 3 33 3 C33 5.31 33 7.62 33 10 C32.34 10 31.68 10 31 10 C31 7.69 31 5.38 31 3 C30.01 3 29.02 3 28 3 C28 2.34 28 1.68 28 1 C26.68 1 25.36 1 24 1 C24 3.64 24 6.28 24 9 C22.35 9.33 20.7 9.66 19 10 C19 9.34 19 8.68 19 8 C19.99 8 20.98 8 22 8 C22 5.69 22 3.38 22 1 C21.01 1 20.02 1 19 1 C18.896875 1.763125 18.79375 2.52625 18.6875 3.3125 C17.95635961 6.17059424 17.23048087 7.15742885 15 9 C11 3.25 11 3.25 11 1 C7.7 1 4.4 1 1 1 C1 20.47 1 39.94 1 60 C0.67 60 0.34 60 0 60 C0 40.2 0 20.4 0 0 Z " fill="#ADACAC" transform="translate(74,78)"/>
<path d="M0 0 C1.87558594 0.00966797 1.87558594 0.00966797 3.7890625 0.01953125 C5.09101562 0.03628906 6.39296875 0.05304688 7.734375 0.0703125 C9.05179688 0.07933594 10.36921875 0.08835937 11.7265625 0.09765625 C14.97934962 0.12122717 18.23177089 0.15413228 21.484375 0.1953125 C21.484375 0.5253125 21.484375 0.8553125 21.484375 1.1953125 C19.174375 1.1953125 16.864375 1.1953125 14.484375 1.1953125 C14.484375 3.8353125 14.484375 6.4753125 14.484375 9.1953125 C15.474375 9.1953125 16.464375 9.1953125 17.484375 9.1953125 C19.44264692 13.99382614 19.60121811 17.99449164 19.109375 23.0703125 C19.05265625 23.75867188 18.9959375 24.44703125 18.9375 25.15625 C18.79744672 26.83688939 18.64245255 28.51627255 18.484375 30.1953125 C17.824375 30.1953125 17.164375 30.1953125 16.484375 30.1953125 C16.154375 24.2553125 15.824375 18.3153125 15.484375 12.1953125 C14.824375 11.8653125 14.164375 11.5353125 13.484375 11.1953125 C13.154375 14.1653125 12.824375 17.1353125 12.484375 20.1953125 C11.824375 20.1953125 11.164375 20.1953125 10.484375 20.1953125 C10.0925 19.2259375 9.700625 18.2565625 9.296875 17.2578125 C7.80842613 13.97354859 7.80842613 13.97354859 4.796875 13.3203125 C3.6521875 13.2584375 3.6521875 13.2584375 2.484375 13.1953125 C2.154375 13.8553125 1.824375 14.5153125 1.484375 15.1953125 C1.484375 14.2053125 1.484375 13.2153125 1.484375 12.1953125 C2.474375 12.1953125 3.464375 12.1953125 4.484375 12.1953125 C4.484375 9.8853125 4.484375 7.5753125 4.484375 5.1953125 C5.144375 5.1953125 5.804375 5.1953125 6.484375 5.1953125 C6.484375 4.5353125 6.484375 3.8753125 6.484375 3.1953125 C0.874375 2.8653125 -4.735625 2.5353125 -10.515625 2.1953125 C-6.33815002 0.10657501 -4.55232247 -0.04138475 0 0 Z " fill="#636261" transform="translate(96.515625,88.8046875)"/>
<path d="M0 0 C12.60974235 4.07962253 21.02452278 18.44605493 26.87548828 29.61816406 C32.90491682 42.38913775 37.48017213 56.83618443 38 71 C38.04092773 71.9895166 38.08185547 72.9790332 38.12402344 73.99853516 C38.6692669 89.52445533 38.93097201 106.04501424 34 121 C33.34 121.66 32.68 122.32 32 123 C32.43903991 119.34133411 32.88524956 115.69795405 33.4831543 112.0612793 C34.9907304 102.65024416 35.44034369 93.45457006 35.4375 83.9375 C35.4385675 83.17264282 35.43963501 82.40778564 35.44073486 81.61975098 C35.4151242 68.86031742 34.19117197 57.13624798 30 45 C29.76474609 44.30052246 29.52949219 43.60104492 29.28710938 42.88037109 C23.61934169 26.44306413 14.8209859 13.36826317 1.43359375 2.27734375 C0.96050781 1.85582031 0.48742187 1.43429687 0 1 C0 0.67 0 0.34 0 0 Z " fill="#7E7D7D" transform="translate(124,11)"/>
<path d="M0 0 C2.88437779 1.29299694 4.87219421 2.65941363 7 5 C6.67 5.66 6.34 6.32 6 7 C4.68 6.34 3.36 5.68 2 5 C2.33 6.98 2.66 8.96 3 11 C1.35 11.33 -0.3 11.66 -2 12 C-2.33 13.32 -2.66 14.64 -3 16 C-4.32 15.67 -5.64 15.34 -7 15 C-7.185625 15.61875 -7.37125 16.2375 -7.5625 16.875 C-9.71437233 20.05602866 -12.37533763 20.19451947 -16 21 C-16 20.34 -16 19.68 -16 19 C-17.32 19.33 -18.64 19.66 -20 20 C-18.53571429 13.41071429 -18.53571429 13.41071429 -16.125 11.5625 C-14 11 -14 11 -10 11 C-9.67 10.01 -9.34 9.02 -9 8 C-7.68 8 -6.36 8 -5 8 C-4.67 6.68 -4.34 5.36 -4 4 C-2.68 4 -1.36 4 0 4 C0 2.68 0 1.36 0 0 Z " fill="#A3A2A2" transform="translate(127,161)"/>
<path d="M0 0 C3.43896237 12.77328881 -1.69776955 22.45489718 -7.93359375 33.51171875 C-12.93789795 42.09085586 -18.45960698 47.83570875 -27 53 C-27.62003906 53.40089844 -28.24007812 53.80179688 -28.87890625 54.21484375 C-31.95092948 55.35200152 -34.51297557 54.94870244 -37.75 54.625 C-38.92046875 54.51414063 -40.0909375 54.40328125 -41.296875 54.2890625 C-42.18890625 54.19367188 -43.0809375 54.09828125 -44 54 C-44 53.67 -44 53.34 -44 53 C-43.16597656 52.91363281 -42.33195312 52.82726562 -41.47265625 52.73828125 C-33.98231771 51.80306143 -28.13880248 50.47671564 -22 46 C-21.40960938 45.57589844 -20.81921875 45.15179688 -20.2109375 44.71484375 C-10.33909125 36.26292059 -3.55093885 19.52681252 -1.3125 7.0625 C-1.18294922 6.37865234 -1.05339844 5.69480469 -0.91992188 4.99023438 C-0.60610402 3.32816202 -0.30200834 1.66425873 0 0 Z " fill="#2D2C2C" transform="translate(141,116)"/>
<path d="M0 0 C0.721875 0.268125 1.44375 0.53625 2.1875 0.8125 C2.5175 1.8025 2.8475 2.7925 3.1875 3.8125 C2.5275 3.8125 1.8675 3.8125 1.1875 3.8125 C1.1875 5.7925 1.1875 7.7725 1.1875 9.8125 C2.5075 9.4825 3.8275 9.1525 5.1875 8.8125 C5.620625 9.451875 6.05375 10.09125 6.5 10.75 C8.09989177 13.07996003 8.09989177 13.07996003 11.1875 13.8125 C11.1875 15.4625 11.1875 17.1125 11.1875 18.8125 C10.1975 18.8125 9.2075 18.8125 8.1875 18.8125 C8.1875 20.7925 8.1875 22.7725 8.1875 24.8125 C6.8675 24.4825 5.5475 24.1525 4.1875 23.8125 C4.8475 23.8125 5.5075 23.8125 6.1875 23.8125 C5.8575 20.5125 5.5275 17.2125 5.1875 13.8125 C2.71483235 14.15694881 2.71483235 14.15694881 0.1875 14.8125 C-0.1425 15.4725 -0.4725 16.1325 -0.8125 16.8125 C-0.008125 16.93625 0.79625 17.06 1.625 17.1875 C2.8934375 17.496875 2.8934375 17.496875 4.1875 17.8125 C4.5175 18.4725 4.8475 19.1325 5.1875 19.8125 C4.8575 20.4725 4.5275 21.1325 4.1875 21.8125 C2.5375 21.4825 0.8875 21.1525 -0.8125 20.8125 C-1.1425 18.5025 -1.4725 16.1925 -1.8125 13.8125 C-3.4625 13.4825 -5.1125 13.1525 -6.8125 12.8125 C-6.8125 12.1525 -6.8125 11.4925 -6.8125 10.8125 C-5.1625 10.4825 -3.5125 10.1525 -1.8125 9.8125 C-1.8125 8.8225 -1.8125 7.8325 -1.8125 6.8125 C-2.8025 7.1425 -3.7925 7.4725 -4.8125 7.8125 C-4.8125 8.4725 -4.8125 9.1325 -4.8125 9.8125 C-5.4725 9.8125 -6.1325 9.8125 -6.8125 9.8125 C-7.625 7.625 -7.625 7.625 -7.8125 4.8125 C-4.05559392 -0.27037293 -4.05559392 -0.27037293 0 0 Z " fill="#201E1D" transform="translate(98.8125,104.1875)"/>
<path d="M0 0 C1.32 0.66 2.64 1.32 4 2 C4.05017655 6.72817512 4.08607867 11.45618863 4.10986328 16.18457031 C4.11979913 17.78648586 4.13335247 19.38838389 4.15087891 20.99023438 C4.43167977 47.35248034 4.43167977 47.35248034 0 54 C-0.92844389 49.66726186 -0.92844389 46.33273814 0 42 C-1.98 42 -3.96 42 -6 42 C-6.33 40.68 -6.66 39.36 -7 38 C-4.36 38 -1.72 38 1 38 C1.33 31.07 1.66 24.14 2 17 C1.34 16.67 0.68 16.34 0 16 C0.226875 15.236875 0.45375 14.47375 0.6875 13.6875 C0.8421875 12.3571875 0.8421875 12.3571875 1 11 C-0.33378575 9.1645201 -0.33378575 9.1645201 -2 8 C-1.67 7.67 -1.34 7.34 -1 7 C-1.99 6.34 -2.98 5.68 -4 5 C-2.68 3.35 -1.36 1.7 0 0 Z " fill="#F5F5F5" transform="translate(156,75)"/>
<path d="M0 0 C0 0.66 0 1.32 0 2 C0.66 2.33 1.32 2.66 2 3 C1.505 3.61875 1.01 4.2375 0.5 4.875 C-1.19222773 6.83880904 -1.19222773 6.83880904 -1 9 C-0.4225 8.690625 0.155 8.38125 0.75 8.0625 C2.84294184 7.07416636 4.74535275 6.4831387 7 6 C7.33 7.98 7.66 9.96 8 12 C8.99 11.34 9.98 10.68 11 10 C14.0625 10.0625 14.0625 10.0625 17 11 C18.375 13.5625 18.375 13.5625 19 16 C19.66 15.01 20.32 14.02 21 13 C21.99 13 22.98 13 24 13 C24.33 15.64 24.66 18.28 25 21 C24.34 21 23.68 21 23 21 C23 19.02 23 17.04 23 15 C22.34 15 21.68 15 21 15 C20.855625 15.61875 20.71125 16.2375 20.5625 16.875 C20 19 20 19 19 21 C16.36 20.34 13.72 19.68 11 19 C11 17.68 11 16.36 11 15 C10.67 15.66 10.34 16.32 10 17 C9.34 16.67 8.68 16.34 8 16 C7.34 15.835 6.68 15.67 6 15.5 C4 15 4 15 2 14 C2 13.01 2 12.02 2 11 C0.35 10.67 -1.3 10.34 -3 10 C-3 8.35 -3 6.7 -3 5 C-3.99 5 -4.98 5 -6 5 C-3.74193548 0 -3.74193548 0 0 0 Z " fill="#7D7D7C" transform="translate(76,162)"/>
<path d="M0 0 C0.495 0.99 0.495 0.99 1 2 C0.3709375 1.80664062 -0.258125 1.61328125 -0.90625 1.4140625 C-3.59995272 0.5945927 -6.29913351 -0.20448616 -9 -1 C-9.6909375 -1.21269531 -10.381875 -1.42539063 -11.09375 -1.64453125 C-21.01297677 -4.46988478 -30.27705588 -3.27743526 -39.5 1.21875 C-60.16727655 12.84409306 -68.63382979 32.52839747 -76 54 C-76.33 54 -76.66 54 -77 54 C-76.47316613 48.178811 -75.31716081 43.32032862 -73.0625 37.9375 C-72.60496338 36.84211914 -72.60496338 36.84211914 -72.13818359 35.72460938 C-64.81513701 18.93854717 -53.09400275 3.98511403 -35.9375 -3.375 C-23.95210449 -7.43211555 -11.20670712 -5.37921942 0 0 Z " fill="#646362" transform="translate(123,9)"/>
<path d="M0 0 C2.5 2.3125 2.5 2.3125 5 5 C5 5.99 5 6.98 5 8 C3.68 7.67 2.36 7.34 1 7 C1 6.34 1 5.68 1 5 C0.01 5 -0.98 5 -2 5 C-2.85974801 7.29294488 -2.85974801 7.29294488 -3 10 C-1.16641665 12.33454661 -1.16641665 12.33454661 1 14 C-1.64 14 -4.28 14 -7 14 C-5.02 16.31 -3.04 18.62 -1 21 C-1.33 21.66 -1.66 22.32 -2 23 C-2.66 23 -3.32 23 -4 23 C-3.34 23.66 -2.68 24.32 -2 25 C-2.99 25 -3.98 25 -5 25 C-5 25.66 -5 26.32 -5 27 C-7.64 26.67 -10.28 26.34 -13 26 C-11.58943148 17.5365889 -7.6722279 9.16408278 -3 2 C-2.01 1.34 -1.02 0.68 0 0 Z " fill="#EEEEEE" transform="translate(62,31)"/>
<path d="M0 0 C0.33 0.99 0.66 1.98 1 3 C1.66 3 2.32 3 3 3 C3 9.27 3 15.54 3 22 C0.525 21.01 0.525 21.01 -2 20 C-2.33 20.99 -2.66 21.98 -3 23 C-3.66 21.02 -4.32 19.04 -5 17 C-6.32 17 -7.64 17 -9 17 C-9 15.02 -9 13.04 -9 11 C-8.34 11 -7.68 11 -7 11 C-7.495 10.38125 -7.99 9.7625 -8.5 9.125 C-10 7 -10 7 -10 5 C-7.6875 4.6875 -7.6875 4.6875 -5 5 C-3.18116991 7.3832946 -2 8.95818337 -2 12 C-1.34 12 -0.68 12 0 12 C0 8.04 0 4.08 0 0 Z " fill="#AAAAA9" transform="translate(109,97)"/>
<path d="M0 0 C0.495 1.485 0.495 1.485 1 3 C-15 -1 -15 -1 -17.10351562 -1.54589844 C-26.88568952 -3.88818003 -36.62591104 -0.60217185 -46 2 C-47.33196067 2.33877673 -48.66448586 2.67551447 -50 3 C-49 0 -49 0 -46.890625 -1.1328125 C-46.01921875 -1.46023437 -45.1478125 -1.78765625 -44.25 -2.125 C-43.38890625 -2.45757812 -42.5278125 -2.79015625 -41.640625 -3.1328125 C-28.67442335 -7.39094381 -11.996841 -6.77087211 0 0 Z " fill="#EEEEEE" transform="translate(126,52)"/>
<path d="M0 0 C6.6 0 13.2 0 20 0 C16.22756069 3.01795145 12.4959191 5.78769944 8.4375 8.375 C7.59155273 8.94541016 7.59155273 8.94541016 6.72851562 9.52734375 C5.05859375 10.5859375 5.05859375 10.5859375 2 12 C-0.40234375 11.2265625 -0.40234375 11.2265625 -2 10 C-1.67 8.906875 -1.34 7.81375 -1 6.6875 C0.13086649 3.15421116 0.13086649 3.15421116 0 0 Z " fill="#1F1D1C" transform="translate(81,57)"/>
<path d="M0 0 C0.66 0.66 1.32 1.32 2 2 C-10.87 2 -23.74 2 -37 2 C-28.39437687 -6.60562313 -10.23063052 -3.5798996 0 0 Z " fill="#181514" transform="translate(119,52)"/>
<path d="M0 0 C3.3 0.33 6.6 0.66 10 1 C8.68 1.33 7.36 1.66 6 2 C6 18.5 6 35 6 52 C5.67 52 5.34 52 5 52 C3.96514367 46.90807713 3.86990033 42.05052659 3.90234375 36.8828125 C3.9037587 36.02565643 3.90517365 35.16850037 3.90663147 34.28536987 C3.91219978 31.5652101 3.92474636 28.84513462 3.9375 26.125 C3.9425191 24.27343869 3.94708129 22.42187609 3.95117188 20.5703125 C3.96215883 16.04684285 3.97940148 11.52343568 4 7 C3.01 7 2.02 7 1 7 C0.67 4.69 0.34 2.38 0 0 Z " fill="#F8F8F8" transform="translate(114,79)"/>
<path d="M0 0 C0 3 0 3 -2 6 C-0.68 6 0.64 6 2 6 C4.29612756 17.52164009 4.29612756 17.52164009 4 23 C-2.15234375 23.87890625 -2.15234375 23.87890625 -4 24 C-5 23 -5 23 -5.0625 20.4375 C-5.041875 19.633125 -5.02125 18.82875 -5 18 C-3 20 -3 20 -3 23 C-2.34 23 -1.68 23 -1 23 C-1 21.35 -1 19.7 -1 18 C-0.67 19.32 -0.34 20.64 0 22 C0.66 22 1.32 22 2 22 C2 20.02 2 18.04 2 16 C-0.64 16 -3.28 16 -6 16 C-6 14.02 -6 12.04 -6 10 C-5.67 11.32 -5.34 12.64 -5 14 C-4.34 14 -3.68 14 -3 14 C-3 12.68 -3 11.36 -3 10 C-2.34 10 -1.68 10 -1 10 C-1 11.32 -1 12.64 -1 14 C-0.34 14 0.32 14 1 14 C1 12.02 1 10.04 1 8 C-1.64 8 -4.28 8 -7 8 C-7 6.02 -7 4.04 -7 2 C-6.401875 1.855625 -5.80375 1.71125 -5.1875 1.5625 C-3.43849596 1.1127561 -1.71322977 0.57107659 0 0 Z " fill="#888887" transform="translate(53,102)"/>
<path d="M0 0 C1.24007812 -0.01417969 2.48015625 -0.02835938 3.7578125 -0.04296875 C6.875 0.1875 6.875 0.1875 8.875 2.1875 C7.8128125 2.21328125 6.750625 2.2390625 5.65625 2.265625 C-5.36782175 2.52374198 -5.36782175 2.52374198 -15.125 7.1875 C-15.76308594 7.62578125 -16.40117188 8.0640625 -17.05859375 8.515625 C-23.79688172 13.71711045 -27.81418258 20.99282555 -32.125 28.1875 C-33.0995192 25.62204885 -33.25589117 24.5170043 -32.2265625 21.92578125 C-26.74934184 12.92749017 -19.72784213 4.04234071 -9.37109375 0.60546875 C-6.23304921 0.02151959 -3.18971362 0.01664777 0 0 Z " fill="#222121" transform="translate(102.125,20.8125)"/>
<path d="M0 0 C2 3 2 3 2 6 C4.64 6 7.28 6 10 6 C10 7.98 10 9.96 10 12 C9.34 12 8.68 12 8 12 C8 10.68 8 9.36 8 8 C7.34 8 6.68 8 6 8 C6 9.32 6 10.64 6 12 C5.34 12 4.68 12 4 12 C3.67 12.66 3.34 13.32 3 14 C5.64 14 8.28 14 11 14 C11 15.98 11 17.96 11 20 C9.35 20.33 7.7 20.66 6 21 C5.34 20.01 4.68 19.02 4 18 C3.01 18.33 2.02 18.66 1 19 C-0.00926479 14.84373632 -0.10239579 10.95634906 -0.0625 6.6875 C-0.05347656 5.43324219 -0.04445312 4.17898437 -0.03515625 2.88671875 C-0.01775391 1.45779297 -0.01775391 1.45779297 0 0 Z " fill="#EDEDED" transform="translate(44,104)"/>
<path d="M0 0 C0.33 0.66 0.66 1.32 1 2 C3.97 2 6.94 2 10 2 C10 2.99 10 3.98 10 5 C10.66 4.34 11.32 3.68 12 3 C13 4 13 4 13 10 C6.07 10 -0.86 10 -8 10 C-8 9.67 -8 9.34 -8 9 C-3.545 8.505 -3.545 8.505 1 8 C0.67 7.34 0.34 6.68 0 6 C-0.039992 4.00039988 -0.04346799 1.99952758 0 0 Z " fill="#F5F5F5" transform="translate(106,121)"/>
<path d="M0 0 C1.65 0 3.3 0 5 0 C5.66 2.31 6.32 4.62 7 7 C8.32 7.33 9.64 7.66 11 8 C11 7.01 11 6.02 11 5 C8.525 4.01 8.525 4.01 6 3 C6.33 2.01 6.66 1.02 7 0 C8.65 0 10.3 0 12 0 C13.1577506 3.47325181 13.06866652 6.36067448 13 10 C8.44206806 11.3811915 5.45480663 10.48493554 1 9 C-0.134375 8.62875 -1.26875 8.2575 -2.4375 7.875 C-3.283125 7.58625 -4.12875 7.2975 -5 7 C-5 6.01 -5 5.02 -5 4 C-2.03 4.495 -2.03 4.495 1 5 C1 4.34 1 3.68 1 3 C0.34 3 -0.32 3 -1 3 C-0.67 2.01 -0.34 1.02 0 0 Z " fill="#F6F6F6" transform="translate(92,118)"/>
<path d="M0 0 C3.125 0.375 3.125 0.375 6 1 C5.67 3.31 5.34 5.62 5 8 C5.78375 7.95875 6.5675 7.9175 7.375 7.875 C10 8 10 8 12 10 C12 11.32 12 12.64 12 14 C11.34 14 10.68 14 10 14 C10 12.68 10 11.36 10 10 C8.35 10 6.7 10 5 10 C5.33 11.65 5.66 13.3 6 15 C6.66 14.34 7.32 13.68 8 13 C8 14.32 8 15.64 8 17 C6.68 16.67 5.36 16.34 4 16 C2.875 11.25 2.875 11.25 4 9 C3.21625 8.87625 2.4325 8.7525 1.625 8.625 C-1 8 -1 8 -3 6 C-2.63318342 3.06546739 -2.13562754 2.13562754 0 0 Z " fill="#7B7A7A" transform="translate(132,26)"/>
<path d="M0 0 C0.33 0 0.66 0 1 0 C1.19477739 1.62414378 1.38059458 3.24936423 1.5625 4.875 C1.66691406 5.77992187 1.77132812 6.68484375 1.87890625 7.6171875 C2 10 2 10 1 12 C5.455 12.99 5.455 12.99 10 14 C9.67 15.32 9.34 16.64 9 18 C9 17.34 9 16.68 9 16 C7.700625 16.12375 6.40125 16.2475 5.0625 16.375 C3.96615234 16.47941406 3.96615234 16.47941406 2.84765625 16.5859375 C2.23792969 16.72257812 1.62820312 16.85921875 1 17 C0.67 17.66 0.34 18.32 0 19 C1.98 19.33 3.96 19.66 6 20 C4.03617993 21.50559539 2.21736634 22.89131683 0 24 C-0.66 24.99 -1.32 25.98 -2 27 C-2.3690205 7.99544419 -2.3690205 7.99544419 0 0 Z " fill="#F2F2F2" transform="translate(45,76)"/>
<path d="M0 0 C5.46973366 0.60774818 5.46973366 0.60774818 7.7109375 2.265625 C9.40913278 4.55046956 9.21122292 5.65582125 8.8125 8.4375 C8.71582031 9.19933594 8.61914062 9.96117187 8.51953125 10.74609375 C7.98253244 13.07578032 7.15422182 14.91480091 6 17 C5.67 16.01 5.34 15.02 5 14 C3.68 14.33 2.36 14.66 1 15 C1.33 14.01 1.66 13.02 2 12 C0.02 11.34 -1.96 10.68 -4 10 C-2.68 9.34 -1.36 8.68 0 8 C-0.99 7.67 -1.98 7.34 -3 7 C-3 6.34 -3 5.68 -3 5 C-0.03 5.495 -0.03 5.495 3 6 C3.33 5.01 3.66 4.02 4 3 C2.68 2.01 1.36 1.02 0 0 Z " fill="#ACABAB" transform="translate(54,52)"/>
<path d="M0 0 C0.99 0.33 1.98 0.66 3 1 C2.01 1.495 2.01 1.495 1 2 C1 3.65 1 5.3 1 7 C1.99 7.33 2.98 7.66 4 8 C4.33 7.01 4.66 6.02 5 5 C5.80883467 7.26473709 6.06515358 8.6928474 5.5625 11.0625 C3.09676353 14.12001323 -0.32706432 14.87249416 -4 16 C-4.33 15.01 -4.66 14.02 -5 13 C-5.99 13 -6.98 13 -8 13 C-10.10770759 10.11165997 -11 8.61537605 -11 5 C-9.35 4.34 -7.7 3.68 -6 3 C-6 5 -6 5 -7.5 6.625 C-7.995 7.07875 -8.49 7.5325 -9 8 C-7.35 7.34 -5.7 6.68 -4 6 C-4 8 -4 8 -5.5 9.625 C-5.995 10.07875 -6.49 10.5325 -7 11 C-5.02 10.01 -3.04 9.02 -1 8 C-1.20625 7.05125 -1.4125 6.1025 -1.625 5.125 C-1.74875 4.09375 -1.8725 3.0625 -2 2 C-1.34 1.34 -0.68 0.68 0 0 Z " fill="#9E9D9D" transform="translate(91,9)"/>
<path d="M0 0 C0 5.28 0 10.56 0 16 C-0.66 16 -1.32 16 -2 16 C-2.391875 15.030625 -2.78375 14.06125 -3.1875 13.0625 C-4.67594887 9.77823609 -4.67594887 9.77823609 -7.6875 9.125 C-8.8321875 9.063125 -8.8321875 9.063125 -10 9 C-10.33 9.66 -10.66 10.32 -11 11 C-11 10.01 -11 9.02 -11 8 C-10.01 8 -9.02 8 -8 8 C-8 5.69 -8 3.38 -8 1 C-1.125 0 -1.125 0 0 0 Z " fill="#1F1D1C" transform="translate(109,93)"/>
<path d="M0 0 C0.66 0.99 1.32 1.98 2 3 C1.33455711 6.26067018 0.41277201 9.09055922 -0.9609375 12.1171875 C-4.43951325 19.88513484 -5.20906696 27.61194699 -6 36 C-6.66 35.67 -7.32 35.34 -8 35 C-9.15411009 29.32252296 -8.91660789 24.78932115 -7.375 19.1875 C-7.19549805 18.50042969 -7.01599609 17.81335938 -6.83105469 17.10546875 C-5.18854981 11.10626866 -2.8569074 5.5264766 0 0 Z " fill="#353434" transform="translate(68,46)"/>
<path d="M0 0 C0.99 0 1.98 0 3 0 C3 0.66 3 1.32 3 2 C4.32 2 5.64 2 7 2 C6.67 4.64 6.34 7.28 6 10 C4.35 10.33 2.7 10.66 1 11 C1.33 12.98 1.66 14.96 2 17 C0.8274869 16.04882866 -0.33787015 15.08882991 -1.5 14.125 C-2.1496875 13.59132813 -2.799375 13.05765625 -3.46875 12.5078125 C-4.22671875 11.76144531 -4.22671875 11.76144531 -5 11 C-5 10.34 -5 9.68 -5 9 C-1.535 8.505 -1.535 8.505 2 8 C0.68 7.01 -0.64 6.02 -2 5 C-1.34 3.35 -0.68 1.7 0 0 Z " fill="#797878" transform="translate(60,36)"/>
<path d="M0 0 C12.91463176 4.17826322 20.83845032 18.7566919 27.00439453 30.04345703 C33.90772219 43.60973165 33.90772219 43.60973165 32 50 C31.79431396 49.45698242 31.58862793 48.91396484 31.37670898 48.35449219 C24.34518251 29.92865679 16.94713376 15.12969171 1.43359375 2.27734375 C0.96050781 1.85582031 0.48742187 1.43429687 0 1 C0 0.67 0 0.34 0 0 Z " fill="#646363" transform="translate(124,11)"/>
<path d="M0 0 C0.99 0.33 1.98 0.66 3 1 C3 1.66 3 2.32 3 3 C2.34 3 1.68 3 1 3 C1 4.32 1 5.64 1 7 C1.66 7 2.32 7 3 7 C3 6.01 3 5.02 3 4 C3.99 4 4.98 4 6 4 C6.66 3.01 7.32 2.02 8 1 C8 3.31 8 5.62 8 8 C7.01 8 6.02 8 5 8 C5.33 9.32 5.66 10.64 6 12 C4.68 12.33 3.36 12.66 2 13 C2 13.66 2 14.32 2 15 C0.68 15.33 -0.64 15.66 -2 16 C-2.05384521 13.70858714 -2.09272087 11.41681812 -2.125 9.125 C-2.14820312 7.84882812 -2.17140625 6.57265625 -2.1953125 5.2578125 C-2 2 -2 2 0 0 Z " fill="#ACACAC" transform="translate(93,93)"/>
<path d="M0 0 C2.91517292 1.07401108 4.77810176 1.77810176 7 4 C6.01 4 5.02 4 4 4 C3.67 4.66 3.34 5.32 3 6 C3 5.34 3 4.68 3 4 C2.01 4 1.02 4 0 4 C-0.33 4.99 -0.66 5.98 -1 7 C-3.109375 8.17578125 -3.109375 8.17578125 -5.75 9.3125 C-10.55068542 11.56196402 -12.87197591 13.79671763 -16 18 C-16.66 18 -17.32 18 -18 18 C-17.40312566 14.65750371 -16.26396123 12.53563658 -14 10 C-13.34 10 -12.68 10 -12 10 C-12 9.34 -12 8.68 -12 8 C-10.35546875 6.74609375 -10.35546875 6.74609375 -8.1875 5.4375 C-7.47980469 5.00308594 -6.77210937 4.56867187 -6.04296875 4.12109375 C-4 3 -4 3 -1 2 C-0.67 1.34 -0.34 0.68 0 0 Z " fill="#2E2C2B" transform="translate(100,27)"/>
<path d="M0 0 C5.28 0.33 10.56 0.66 16 1 C15.34 2.98 14.68 4.96 14 7 C9.38 7 4.76 7 0 7 C0 4.69 0 2.38 0 0 Z " fill="#757474" transform="translate(107,144)"/>
<path d="M0 0 C0.33 0 0.66 0 1 0 C1.01981934 1.04454346 1.03963867 2.08908691 1.06005859 3.1652832 C1.13612114 7.0400405 1.22483728 10.91442257 1.31738281 14.78881836 C1.35566993 16.46582634 1.39052331 18.14291638 1.421875 19.82006836 C1.46753179 22.23060432 1.5255241 24.64057557 1.5859375 27.05078125 C1.59748871 27.80087967 1.60903992 28.55097809 1.62094116 29.32380676 C1.72695459 33.06127713 1.87619082 34.81428623 4 38 C6.64691668 38.80092254 6.64691668 38.80092254 9.625 39.1875 C11.12933594 39.42533203 11.12933594 39.42533203 12.6640625 39.66796875 C13.43492188 39.77753906 14.20578125 39.88710937 15 40 C14.67 40.66 14.34 41.32 14 42 C9.38 42 4.76 42 0 42 C0 28.14 0 14.28 0 0 Z " fill="#FCFCFC" transform="translate(84,89)"/>
<path d="M0 0 C8.58 0 17.16 0 26 0 C26 0.33 26 0.66 26 1 C21.05 1 16.1 1 11 1 C11 3.97 11 6.94 11 10 C10.34 10 9.68 10 9 10 C9 7.03 9 4.06 9 1 C8.34 1 7.68 1 7 1 C7 1.66 7 2.32 7 3 C6.01 3 5.02 3 4 3 C4 5.31 4 7.62 4 10 C3.34 10 2.68 10 2 10 C2 7.69 2 5.38 2 3 C1.01 3 0.02 3 -1 3 C-0.67 2.01 -0.34 1.02 0 0 Z " fill="#767676" transform="translate(103,78)"/>
<path d="M0 0 C2.3125 -0.3125 2.3125 -0.3125 5 0 C7.24243223 2.86103423 8 4.34076304 8 8 C8.99 8.33 9.98 8.66 11 9 C8.44931155 11.35448165 7.28982642 11.98327924 3.75 12.1875 C2.8425 12.125625 1.935 12.06375 1 12 C1 10.02 1 8.04 1 6 C1.66 6 2.32 6 3 6 C2.2575 5.071875 2.2575 5.071875 1.5 4.125 C0 2 0 2 0 0 Z " fill="#E3E3E3" transform="translate(99,102)"/>
<path d="M0 0 C2.375 0.3125 2.375 0.3125 5 1 C5.66 1.99 6.32 2.98 7 4 C7.66 3.01 8.32 2.02 9 1 C9.99 1 10.98 1 12 1 C12.33 3.64 12.66 6.28 13 9 C12.34 9 11.68 9 11 9 C11 7.02 11 5.04 11 3 C10.34 3 9.68 3 9 3 C8.7834375 3.928125 8.7834375 3.928125 8.5625 4.875 C8 7 8 7 7 9 C4.36 8.34 1.72 7.68 -1 7 C-0.67 4.69 -0.34 2.38 0 0 Z " fill="#8B8A8A" transform="translate(88,174)"/>
<path d="M0 0 C1.98 0.66 3.96 1.32 6 2 C5.34 2.66 4.68 3.32 4 4 C4.515625 4.391875 5.03125 4.78375 5.5625 5.1875 C6.036875 5.785625 6.51125 6.38375 7 7 C6.6875 9.6875 6.6875 9.6875 6 12 C5.34 11.67 4.68 11.34 4 11 C4.33 9.68 4.66 8.36 5 7 C4.34 7 3.68 7 3 7 C2.67 8.65 2.34 10.3 2 12 C0.68 12 -0.64 12 -2 12 C-1.67 9.69 -1.34 7.38 -1 5 C-1.66 5 -2.32 5 -3 5 C-1.125 1.125 -1.125 1.125 0 0 Z " fill="#A3A2A2" transform="translate(151,79)"/>
<path d="M0 0 C0.639375 0.66 1.27875 1.32 1.9375 2 C2.95367909 3.00472919 3.97529981 4.00396275 5 5 C5.66644531 5.65097656 6.33289063 6.30195313 7.01953125 6.97265625 C15.03712721 14.48476455 22.02186314 17.54162268 33 18 C33 18.33 33 18.66 33 19 C21.74361068 19.49905174 14.84979621 17.91765899 6.10546875 10.36328125 C1.2596368 5.81352865 1.2596368 5.81352865 0.0625 2.0625 C0.041875 1.381875 0.02125 0.70125 0 0 Z " fill="#1A1918" transform="translate(74,152)"/>
<path d="M0 0 C-0.495 0.45375 -0.99 0.9075 -1.5 1.375 C-3.22609337 2.87635519 -3.22609337 2.87635519 -3 5 C-2.34 5 -1.68 5 -1 5 C-1.33 5.66 -1.66 6.32 -2 7 C-4.475 6.01 -4.475 6.01 -7 5 C-7 5.99 -7 6.98 -7 8 C-4.03 8.495 -4.03 8.495 -1 9 C-1 9.33 -1 9.66 -1 10 C-3.31 10 -5.62 10 -8 10 C-8 10.99 -8 11.98 -8 13 C-8.66 13 -9.32 13 -10 13 C-10.2165625 11.63875 -10.2165625 11.63875 -10.4375 10.25 C-10.86409473 7.78523044 -11.35074221 5.41152893 -12 3 C-7.77050005 0.58314288 -4.87664009 -0.34833144 0 0 Z " fill="#91908F" transform="translate(56,71)"/>
<path d="M0 0 C0.66 1.32 1.32 2.64 2 4 C2.53294678 3.78561279 3.06589355 3.57122559 3.61499023 3.3503418 C9.58999821 1.12935355 14.72608813 0.62078544 21.0625 0.8125 C21.92810547 0.82603516 22.79371094 0.83957031 23.68554688 0.85351562 C25.79064174 0.8884067 27.89540974 0.94219335 30 1 C27.66937231 3.68510426 27.18221353 3.97575785 23.41796875 4.4765625 C22.00838105 4.54021274 20.59806962 4.58919225 19.1875 4.625 C14.38088247 4.80220249 9.74656068 5.1913267 5 6 C2.625 5.5625 2.625 5.5625 1 5 C1 4.34 1 3.68 1 3 C0.34 2.67 -0.32 2.34 -1 2 C-0.67 1.34 -0.34 0.68 0 0 Z " fill="#4E4D4D" transform="translate(81,43)"/>
<path d="M0 0 C1.1446875 0.3403125 1.1446875 0.3403125 2.3125 0.6875 C3 3 3 3 3.3125 5.6875 C2.1875 7.5625 2.1875 7.5625 0.3125 8.6875 C-2.375 8.375 -2.375 8.375 -4.6875 7.6875 C-5.375 5.375 -5.375 5.375 -5.6875 2.6875 C-4.0011022 -0.12316299 -3.27764429 -0.38112143 0 0 Z " fill="#777776" transform="translate(122.6875,14.3125)"/>
<path d="M0 0 C-0.020625 1.093125 -0.04125 2.18625 -0.0625 3.3125 C-0.18544452 6.94384191 -0.18544452 6.94384191 1 10 C-1.64738916 11.4606285 -2.89448334 12 -6 12 C-5.67 11.01 -5.34 10.02 -5 9 C-4.34 9 -3.68 9 -3 9 C-3 8.34 -3 7.68 -3 7 C-4.65 7.66 -6.3 8.32 -8 9 C-7.67 8.01 -7.34 7.02 -7 6 C-6.34 6 -5.68 6 -5 6 C-5 5.34 -5 4.68 -5 4 C-5.99 4 -6.98 4 -8 4 C-8 3.34 -8 2.68 -8 2 C-4.91190305 0.23537317 -3.76687864 0 0 0 Z " fill="#F4F4F4" transform="translate(90,8)"/>
<path d="M0 0 C1.98 0 3.96 0 6 0 C6 3.96 6 7.92 6 12 C5.01 11.67 4.02 11.34 3 11 C3 10.01 3 9.02 3 8 C2.01 8 1.02 8 0 8 C0 5.36 0 2.72 0 0 Z " fill="#E6E6E6" transform="translate(111,90)"/>
<path d="M0 0 C6.06891692 -0.0493933 12.13771713 -0.08571643 18.20678711 -0.10986328 C20.271912 -0.11992835 22.33702263 -0.13358154 24.40209961 -0.15087891 C27.36836264 -0.17510493 30.33443744 -0.18647797 33.30078125 -0.1953125 C34.2258699 -0.20563507 35.15095856 -0.21595764 36.1040802 -0.22659302 C36.96474594 -0.22674408 37.82541168 -0.22689514 38.7121582 -0.22705078 C39.46938675 -0.231492 40.2266153 -0.23593323 41.00679016 -0.24050903 C43 0 43 0 46 2 C45.67 3.65 45.34 5.3 45 7 C44.01 7 43.02 7 42 7 C42.33 5.68 42.66 4.36 43 3 C29.14 2.67 15.28 2.34 1 2 C0.67 1.34 0.34 0.68 0 0 Z " fill="#626161" transform="translate(80,53)"/>
<path d="M0 0 C14.19 0 28.38 0 43 0 C43.495 1.98 43.495 1.98 44 4 C43.01 3.34 42.02 2.68 41 2 C38.02608939 1.82777652 35.14797082 1.76805799 32.17578125 1.8046875 C31.31438034 1.8075174 30.45297943 1.81034729 29.56547546 1.81326294 C26.81434231 1.82445763 24.06353475 1.84956079 21.3125 1.875 C19.44727033 1.88503073 17.58203555 1.89415641 15.71679688 1.90234375 C11.1444058 1.92439462 6.57225811 1.95891951 2 2 C1.67 2.99 1.34 3.98 1 5 C0.34 5 -0.32 5 -1 5 C-0.67 3.35 -0.34 1.7 0 0 Z " fill="#E0E0E0" transform="translate(80,55)"/>
<path d="M0 0 C0.6909375 -0.01224609 1.381875 -0.02449219 2.09375 -0.03710938 C9.38253933 -0.05766047 15.72837251 2.0571188 22.25 5.1875 C22.745 6.1775 22.745 6.1775 23.25 7.1875 C22.6209375 6.99414062 21.991875 6.80078125 21.34375 6.6015625 C18.65004728 5.7820927 15.95086649 4.98301384 13.25 4.1875 C12.5590625 3.97480469 11.868125 3.76210937 11.15625 3.54296875 C2.6182075 1.11102632 -6.04995298 2.15089865 -14.75 3.1875 C-9.73325602 0.59263243 -5.59889081 0.00510848 0 0 Z " fill="#757474" transform="translate(100.75,3.8125)"/>
<path d="M0 0 C5.28 0 10.56 0 16 0 C16 0.33 16 0.66 16 1 C14.02 1 12.04 1 10 1 C10 1.66 10 2.32 10 3 C9.01 3 8.02 3 7 3 C6.67 4.32 6.34 5.64 6 7 C5.01 6.67 4.02 6.34 3 6 C3 6.99 3 7.98 3 9 C2.34 9 1.68 9 1 9 C1 7.68 1 6.36 1 5 C1.66 5 2.32 5 3 5 C2.2575 4.319375 2.2575 4.319375 1.5 3.625 C0 2 0 2 0 0 Z " fill="#EEEEEE" transform="translate(93,91)"/>
<path d="M0 0 C2.97 0 5.94 0 9 0 C9.38218767 1.65614657 9.71395102 3.32457024 10 5 C9 6 9 6 6.93359375 6.09765625 C6.10988281 6.08605469 5.28617187 6.07445312 4.4375 6.0625 C3.61121094 6.05347656 2.78492187 6.04445312 1.93359375 6.03515625 C1.29550781 6.02355469 0.65742187 6.01195312 0 6 C0 4.02 0 2.04 0 0 Z " fill="#898988" transform="translate(81,145)"/>
<path d="M0 0 C7.08036317 0.30129205 13.79485177 1.36466063 20 5 C20.33 5.99 20.66 6.98 21 8 C18.415141 7.3808361 15.83223828 6.75492318 13.25 6.125 C12.52039063 5.95097656 11.79078125 5.77695312 11.0390625 5.59765625 C3.86272321 3.83619115 3.86272321 3.83619115 1 2 C0.67 1.34 0.34 0.68 0 0 Z " fill="#CFCFCF" transform="translate(106,47)"/>
<path d="M0 0 C2.64 0 5.28 0 8 0 C8 3 8 6 8 9 C5.36 9 2.72 9 0 9 C1 6 1 6 3 4 C1.68 3.67 0.36 3.34 -1 3 C-0.67 2.01 -0.34 1.02 0 0 Z " fill="#8B8A8A" transform="translate(46,92)"/>
<path d="M0 0 C0 0.66 0 1.32 0 2 C0.66 2.33 1.32 2.66 2 3 C1.505 3.61875 1.01 4.2375 0.5 4.875 C-1.19222773 6.83880904 -1.19222773 6.83880904 -1 9 C-0.4225 8.690625 0.155 8.38125 0.75 8.0625 C2.84294184 7.07416636 4.74535275 6.4831387 7 6 C6.67 7.32 6.34 8.64 6 10 C2.67465243 11.10844919 0.37817425 10.84454356 -3 10 C-3 8.35 -3 6.7 -3 5 C-3.99 5 -4.98 5 -6 5 C-3.74193548 0 -3.74193548 0 0 0 Z " fill="#5A5959" transform="translate(76,162)"/>
<path d="M0 0 C0.33 0.66 0.66 1.32 1 2 C1.66 2.33 2.32 2.66 3 3 C5 4 5 4 6 6 C4.68 6.33 3.36 6.66 2 7 C2 7.66 2 8.32 2 9 C1.236875 8.835 0.47375 8.67 -0.3125 8.5 C-3.03596236 7.90854604 -3.03596236 7.90854604 -6 8 C-4.73058503 4.08597051 -3.48832306 2.20927127 0 0 Z " fill="#E9E9E9" transform="translate(66,25)"/>
<path d="M0 0 C2 3 2 3 2 6 C4.64 6 7.28 6 10 6 C10 7.98 10 9.96 10 12 C9.34 12 8.68 12 8 12 C8 10.68 8 9.36 8 8 C7.34 8 6.68 8 6 8 C6 9.32 6 10.64 6 12 C5.34 12 4.68 12 4 12 C4 10.68 4 9.36 4 8 C3.34 8 2.68 8 2 8 C1.67 9.32 1.34 10.64 1 12 C-0.3271261 8.0186217 -0.06915913 4.14954773 0 0 Z " fill="#F7F7F7" transform="translate(44,104)"/>
<path d="M0 0 C0.33 0.66 0.66 1.32 1 2 C3.97 2 6.94 2 10 2 C9.67 3.65 9.34 5.3 9 7 C2.84765625 7.09765625 2.84765625 7.09765625 1 7 C0 6 0 6 -0.0625 2.9375 C-0.041875 1.968125 -0.02125 0.99875 0 0 Z " fill="#979696" transform="translate(106,121)"/>
<path d="M0 0 C2.88437779 1.29299694 4.87219421 2.65941363 7 5 C6.67 5.66 6.34 6.32 6 7 C4.68 6.34 3.36 5.68 2 5 C2.33 6.98 2.66 8.96 3 11 C1.02 9.35 -0.96 7.7 -3 6 C-3.33 6.66 -3.66 7.32 -4 8 C-4 6.68 -4 5.36 -4 4 C-2.68 4 -1.36 4 0 4 C0 2.68 0 1.36 0 0 Z " fill="#A0A0A0" transform="translate(127,161)"/>
<path d="M0 0 C0.35729936 1.32711192 0.68325425 2.66262906 1 4 C1.33837891 5.41152344 1.33837891 5.41152344 1.68359375 6.8515625 C2.05776234 10.57477096 1.34449458 12.87865115 0.0625 16.375 C-0.31777344 17.43460938 -0.69804687 18.49421875 -1.08984375 19.5859375 C-1.39019531 20.38257813 -1.69054687 21.17921875 -2 22 C-4 19 -4 19 -3.828125 17.08984375 C-3.63734375 16.37957031 -3.4465625 15.66929687 -3.25 14.9375 C-2.36625648 11.44843467 -1.56750612 7.97028482 -0.875 4.4375 C-0.70742187 3.59058594 -0.53984375 2.74367188 -0.3671875 1.87109375 C-0.24601563 1.25363281 -0.12484375 0.63617188 0 0 Z " fill="#4D4C4C" transform="translate(141,116)"/>
<path d="M0 0 C0.66 0 1.32 0 2 0 C2 2.97 2 5.94 2 9 C2.66 9 3.32 9 4 9 C4 6.36 4 3.72 4 1 C4.33 1 4.66 1 5 1 C5 2.98 5 4.96 5 7 C5.99 7 6.98 7 8 7 C8 7.99 8 8.98 8 10 C5.03 10 2.06 10 -1 10 C-1 8.68 -1 7.36 -1 6 C-0.34 6 0.32 6 1 6 C1 5.01 1 4.02 1 3 C-0.32 2.67 -1.64 2.34 -3 2 C-2.01 2 -1.02 2 0 2 C0 1.34 0 0.68 0 0 Z " fill="#C8C8C8" transform="translate(110,79)"/>
<path d="M0 0 C1.9375 0.8125 1.9375 0.8125 4 2 C5.23102992 5.69308976 4.87175152 8.88050712 4.5625 12.6875 C4.51029297 13.38939453 4.45808594 14.09128906 4.40429688 14.81445312 C4.27492135 16.54338054 4.13817469 18.27175355 4 20 C3.34 20 2.68 20 2 20 C1.93941406 18.72382812 1.87882812 17.44765625 1.81640625 16.1328125 C1.73200432 14.46352984 1.64735614 12.79425963 1.5625 11.125 C1.52318359 10.28324219 1.48386719 9.44148438 1.44335938 8.57421875 C1.40146484 7.76855469 1.35957031 6.96289062 1.31640625 6.1328125 C1.26141968 5.01737061 1.26141968 5.01737061 1.20532227 3.87939453 C1.10044135 1.91135688 1.10044135 1.91135688 0 0 Z " fill="#292827" transform="translate(111,99)"/>
<path d="M0 0 C1.32 0.66 2.64 1.32 4 2 C4 4.64 4 7.28 4 10 C3.34 9.34 2.68 8.68 2 8 C1.34 8.66 0.68 9.32 0 10 C-0.66 9.34 -1.32 8.68 -2 8 C-1.67 7.67 -1.34 7.34 -1 7 C-1.99 6.34 -2.98 5.68 -4 5 C-2.68 3.35 -1.36 1.7 0 0 Z " fill="#E9E9E9" transform="translate(156,75)"/>
<path d="M0 0 C2 2 2 2 2.1875 5.6875 C2.09629967 9.52492934 1.63059333 13.21644004 1 17 C0.34 16.67 -0.32 16.34 -1 16 C-2.2674668 9.9795327 -1.77830479 5.85794517 0 0 Z " fill="#4B4A4A" transform="translate(61,65)"/>
<path d="M0 0 C2.45849212 0.23791859 3.81202615 0.863881 5.8125 2.3125 C7 4 7 4 6.6875 6.1875 C6.3471875 7.0846875 6.3471875 7.0846875 6 8 C5.01 7.67 4.02 7.34 3 7 C3.66 7 4.32 7 5 7 C4.67 6.34 4.34 5.68 4 5 C2.35 5.33 0.7 5.66 -1 6 C-1.625 4.125 -1.625 4.125 -2 2 C-1.34 1.34 -0.68 0.68 0 0 Z " fill="#8E8D8D" transform="translate(132,156)"/>
<path d="M0 0 C0.99 0.33 1.98 0.66 3 1 C3 1.66 3 2.32 3 3 C2.01 3 1.02 3 0 3 C0 5.97 0 8.94 0 12 C0.66 12.33 1.32 12.66 2 13 C2 13.66 2 14.32 2 15 C0.68 15.33 -0.64 15.66 -2 16 C-2.05384521 13.70858714 -2.09272087 11.41681812 -2.125 9.125 C-2.14820312 7.84882812 -2.17140625 6.57265625 -2.1953125 5.2578125 C-2 2 -2 2 0 0 Z " fill="#838382" transform="translate(93,93)"/>
<path d="M0 0 C0.33 0.66 0.66 1.32 1 2 C2.99883869 2.34022786 4.99890722 2.67329097 7 3 C7.66 3.66 8.32 4.32 9 5 C8.01 5 7.02 5 6 5 C6 5.66 6 6.32 6 7 C3.36 6.67 0.72 6.34 -2 6 C-1.125 1.125 -1.125 1.125 0 0 Z " fill="#F8F8F8" transform="translate(51,51)"/>
<path d="M0 0 C-0.9590625 0.433125 -0.9590625 0.433125 -1.9375 0.875 C-4.15206079 1.82823451 -4.15206079 1.82823451 -5 4 C-3.7934375 4.185625 -3.7934375 4.185625 -2.5625 4.375 C-1.2940625 4.684375 -1.2940625 4.684375 0 5 C0.33 5.66 0.66 6.32 1 7 C0.67 7.66 0.34 8.32 0 9 C-1.65 8.67 -3.3 8.34 -5 8 C-5.66 5.36 -6.32 2.72 -7 0 C-3.86650268 -1.04449911 -3.01031744 -0.93423645 0 0 Z " fill="#848483" transform="translate(103,117)"/>
<path d="M0 0 C2.49361571 1.20381448 4.68143083 2.45428722 7 4 C7 4.66 7 5.32 7 6 C6.34 6 5.68 6 5 6 C5 6.66 5 7.32 5 8 C4.38125 8.12375 3.7625 8.2475 3.125 8.375 C0.80879168 8.87197356 0.80879168 8.87197356 -1 11 C-1.66 9.68 -2.32 8.36 -3 7 C-2.01 7.33 -1.02 7.66 0 8 C0 7.34 0 6.68 0 6 C-1.32 5.67 -2.64 5.34 -4 5 C-0.535 4.505 -0.535 4.505 3 4 C2.01 2.68 1.02 1.36 0 0 Z " fill="#777676" transform="translate(68,26)"/>
<path d="M0 0 C0 1.65 0 3.3 0 5 C-1.32 5 -2.64 5 -4 5 C-4.33 6.32 -4.66 7.64 -5 9 C-6.65 8.01 -8.3 7.02 -10 6 C-2.6 0 -2.6 0 0 0 Z " fill="#E4E4E4" transform="translate(122,164)"/>
<path d="M0 0 C0 0.99 0 1.98 0 3 C-5.95822705 7.25587646 -12.03398858 5.85783227 -19 5 C-19 4.67 -19 4.34 -19 4 C-18.10796875 3.87882813 -17.2159375 3.75765625 -16.296875 3.6328125 C-14.54117188 3.38144531 -14.54117188 3.38144531 -12.75 3.125 C-11.58984375 2.96257812 -10.4296875 2.80015625 -9.234375 2.6328125 C-6.00267842 2.00052404 -3.19971544 0 0 0 Z " fill="#373635" transform="translate(116,165)"/>
<path d="M0 0 C2.97 0 5.94 0 9 0 C9 2.97 9 5.94 9 9 C8.34 9 7.68 9 7 9 C7 8.01 7 7.02 7 6 C4.69 6 2.38 6 0 6 C0 5.67 0 5.34 0 5 C2.31 5 4.62 5 7 5 C7 4.01 7 3.02 7 2 C4.69 1.67 2.38 1.34 0 1 C0 0.67 0 0.34 0 0 Z " fill="#828181" transform="translate(149,101)"/>
<path d="M0 0 C0.99 0.33 1.98 0.66 3 1 C3 2.65 3 4.3 3 6 C2.01 6 1.02 6 0 6 C0 7.98 0 9.96 0 12 C-1.32 11.67 -2.64 11.34 -4 11 C-3.34 11 -2.68 11 -2 11 C-2.33 8.03 -2.66 5.06 -3 2 C-2.01 1.34 -1.02 0.68 0 0 Z " fill="#525150" transform="translate(107,117)"/>
<path d="M0 0 C3.43633742 0.41906554 6.08869314 1.04093529 9.25 2.5 C13.6521978 4.52797876 18.21471892 4.72077837 23 5 C23 5.33 23 5.66 23 6 C13.76075063 6.40962189 7.32045601 6.14918305 0 0 Z " fill="#131212" transform="translate(84,165)"/>
<path d="M0 0 C0.33 0 0.66 0 1 0 C1 5.94 1 11.88 1 18 C1.66 18.33 2.32 18.66 3 19 C2.67 19.99 2.34 20.98 2 22 C0.68 22 -0.64 22 -2 22 C-2 20.68 -2 19.36 -2 18 C-1.34 18 -0.68 18 0 18 C-0.33 17.01 -0.66 16.02 -1 15 C-0.91255992 12.4191074 -0.77131505 9.88308522 -0.5625 7.3125 C-0.51029297 6.61060547 -0.45808594 5.90871094 -0.40429688 5.18554688 C-0.27492135 3.45661946 -0.13817469 1.72824645 0 0 Z " fill="#5F5E5E" transform="translate(112,101)"/>
<path d="M0 0 C-4.54784207 3.03189471 -9.42741631 6 -15 6 C-14 3 -14 3 -11.85546875 1.796875 C-10.97503906 1.45140625 -10.09460938 1.1059375 -9.1875 0.75 C-8.31480469 0.39421875 -7.44210938 0.0384375 -6.54296875 -0.328125 C-3.86358764 -1.03604136 -2.56787877 -0.9337741 0 0 Z " fill="#CCCBCB" transform="translate(91,49)"/>
<path d="M0 0 C0.66 0 1.32 0 2 0 C4.24281523 5.20333134 5.55577239 8.34264585 4 14 C1.01520806 9.52281208 0 5.36175907 0 0 Z " fill="#383736" transform="translate(136,52)"/>
<path d="M0 0 C0.66 0 1.32 0 2 0 C3.03307771 1.76371818 4.05112049 3.53625033 5.0625 5.3125 C5.63097656 6.29863281 6.19945312 7.28476562 6.78515625 8.30078125 C8 11 8 11 7 14 C3.94998169 10.33997803 0 4.92148529 0 0 Z " fill="#212020" transform="translate(129,39)"/>
<path d="M0 0 C1.32 0.33 2.64 0.66 4 1 C4.33 3.97 4.66 6.94 5 10 C3.35 10 1.7 10 0 10 C0 8.02 0 6.04 0 4 C0.66 4 1.32 4 2 4 C1.34 2.68 0.68 1.36 0 0 Z " fill="#939392" transform="translate(100,104)"/>
<path d="M0 0 C0 2.31 0 4.62 0 7 C-0.99 7.33 -1.98 7.66 -3 8 C-3 8.66 -3 9.32 -3 10 C-3.66 10 -4.32 10 -5 10 C-5.8125 7.8125 -5.8125 7.8125 -6 5 C-1.77777778 0 -1.77777778 0 0 0 Z " fill="#1D1B1A" transform="translate(97,104)"/>
<path d="M0 0 C0.66 0 1.32 0 2 0 C2 4.62 2 9.24 2 14 C1.34 14 0.68 14 0 14 C-1.13016601 8.97703996 -0.77916092 5.02125926 0 0 Z " fill="#262524" transform="translate(107,95)"/>
<path d="M0 0 C-0.375 2.4375 -0.375 2.4375 -1 5 C-1.99 5.495 -1.99 5.495 -3 6 C-3 5.34 -3 4.68 -3 4 C-3.99 3.67 -4.98 3.34 -6 3 C-6.99 2.67 -7.98 2.34 -9 2 C-9 1.34 -9 0.68 -9 0 C-5.62182575 -0.84454356 -3.32534757 -1.10844919 0 0 Z " fill="#828181" transform="translate(156,73)"/>
<path d="M0 0 C0 2.31 0 4.62 0 7 C0.99 7 1.98 7 3 7 C2.67 7.66 2.34 8.32 2 9 C1.01 9 0.02 9 -1 9 C-1.66 7.02 -2.32 5.04 -3 3 C-4.65 3 -6.3 3 -8 3 C-8 2.34 -8 1.68 -8 1 C-2.25 0 -2.25 0 0 0 Z " fill="#777676" transform="translate(111,91)"/>
<path d="M0 0 C-0.99 0.495 -0.99 0.495 -2 1 C-1.67 2.65 -1.34 4.3 -1 6 C-6.75 4.125 -6.75 4.125 -9 3 C-8.67 2.01 -8.34 1.02 -8 0 C-4.71303767 -0.79953138 -3.28976808 -1.09658936 0 0 Z " fill="#797878" transform="translate(55,85)"/>
<path d="M0 0 C0.66 0 1.32 0 2 0 C2 1.32 2 2.64 2 4 C3.32 4 4.64 4 6 4 C6.33 3.01 6.66 2.02 7 1 C7 3.64 7 6.28 7 9 C6.67 7.68 6.34 6.36 6 5 C4.68 5 3.36 5 2 5 C2 6.32 2 7.64 2 9 C1.34 9 0.68 9 0 9 C0 6.03 0 3.06 0 0 Z " fill="#6B6A6A" transform="translate(99,8)"/>
<path d="M0 0 C1.98 0 3.96 0 6 0 C7.1577506 3.47325181 7.06866652 6.36067448 7 10 C6.71125 9.38125 6.4225 8.7625 6.125 8.125 C4.47296158 5.00448298 3.37927784 4.12642595 0 3 C0 2.01 0 1.02 0 0 Z " fill="#CCCCCC" transform="translate(98,118)"/>
<path d="M0 0 C2.97 0 5.94 0 9 0 C6.91100178 4.17799643 5.94455388 4.92391901 2 7 C2.33 5.02 2.66 3.04 3 1 C2.01 0.67 1.02 0.34 0 0 Z " fill="#727271" transform="translate(143,56)"/>
<path d="M0 0 C2.0625 0.4375 2.0625 0.4375 4 1 C3.67 2.65 3.34 4.3 3 6 C1.35 5.67 -0.3 5.34 -2 5 C-1.125 1.125 -1.125 1.125 0 0 Z " fill="#F0F0F0" transform="translate(133,27)"/>
<path d="M0 0 C0.66 1.32 1.32 2.64 2 4 C1.01 3.67 0.02 3.34 -1 3 C-1 4.32 -1 5.64 -1 7 C-2.65 7.33 -4.3 7.66 -6 8 C-5.65120368 4.74456771 -4.97866739 3.98126893 -2.4375 1.75 C-1.633125 1.1725 -0.82875 0.595 0 0 Z " fill="#FAFAFA" transform="translate(128,158)"/>
<path d="M0 0 C2.475 0.495 2.475 0.495 5 1 C4.67 2.65 4.34 4.3 4 6 C2.68 6 1.36 6 0 6 C0 4.02 0 2.04 0 0 Z " fill="#767675" transform="translate(97,145)"/>
<path d="M0 0 C2.64 0.33 5.28 0.66 8 1 C8 2.98 8 4.96 8 7 C7.34 6.67 6.68 6.34 6 6 C6.33 4.68 6.66 3.36 7 2 C6.34 2 5.68 2 5 2 C4.34 3.32 3.68 4.64 3 6 C3 4.35 3 2.7 3 1 C2.34 1 1.68 1 1 1 C0.67 2.65 0.34 4.3 0 6 C-1 3 -1 3 0 0 Z " fill="#6B6A6A" transform="translate(145,127)"/>
<path d="M0 0 C-1.5277867 3.43752007 -3.50181056 6.18953688 -6 9 C-6.66 9 -7.32 9 -8 9 C-7.53918323 4.85264908 -4.48412936 0 0 0 Z " fill="#1D1A1A" transform="translate(90,36)"/>
<path d="M0 0 C2.33218272 0.84806644 3.44954313 1.8950996 5.0625 3.75 C2.4225 3.75 -0.2175 3.75 -2.9375 3.75 C-3.2675 4.41 -3.5975 5.07 -3.9375 5.75 C-3.9375 4.1 -3.9375 2.45 -3.9375 0.75 C-1.9375 -0.25 -1.9375 -0.25 0 0 Z " fill="#F9F9F9" transform="translate(57.9375,41.25)"/>
<path d="M0 0 C-1.625 6.75 -1.625 6.75 -5 9 C-5 7.68 -5 6.36 -5 5 C-5.99 5 -6.98 5 -8 5 C-2.25 0 -2.25 0 0 0 Z " fill="#6C6B6A" transform="translate(73,157)"/>
<path d="M0 0 C2.31 0 4.62 0 7 0 C6.34 1.98 5.68 3.96 5 6 C3.35 5.67 1.7 5.34 0 5 C0 3.35 0 1.7 0 0 Z " fill="#A6A6A6" transform="translate(116,145)"/>
<path d="M0 0 C5.28798182 0.41474367 8.11690718 1.35224614 12 5 C9 6 9 6 6.73828125 5.00390625 C5.93777344 4.52824219 5.13726562 4.05257812 4.3125 3.5625 C3.50425781 3.08941406 2.69601563 2.61632812 1.86328125 2.12890625 C1.24839844 1.75636719 0.63351563 1.38382812 0 1 C0 0.67 0 0.34 0 0 Z " fill="#CDCCCC" transform="translate(107,63)"/>
<path d="M0 0 C2.0625 0.4375 2.0625 0.4375 4 1 C3.67 2.32 3.34 3.64 3 5 C1.68 5 0.36 5 -1 5 C-1 1 -1 1 0 0 Z " fill="#F7F7F7" transform="translate(120,16)"/>
<path d="M0 0 C2.64 0 5.28 0 8 0 C8.33 0.99 8.66 1.98 9 3 C7.02 4.32 5.04 5.64 3 7 C2.34 6.67 1.68 6.34 1 6 C2.32 5.01 3.64 4.02 5 3 C2.525 2.01 2.525 2.01 0 1 C0 0.67 0 0.34 0 0 Z " fill="#757474" transform="translate(50,128)"/>
<path d="M0 0 C0 1.32 0 2.64 0 4 C-2.64 4 -5.28 4 -8 4 C-7 1 -7 1 -4.5625 -0.25 C-2 -1 -2 -1 0 0 Z " fill="#70706F" transform="translate(54,97)"/>
<path d="M0 0 C0 0.66 0 1.32 0 2 C0.66 2.33 1.32 2.66 2 3 C0.68 4.32 -0.64 5.64 -2 7 C-2.33 6.34 -2.66 5.68 -3 5 C-3.99 5 -4.98 5 -6 5 C-3.74193548 0 -3.74193548 0 0 0 Z " fill="#706F6E" transform="translate(76,162)"/>
<path d="M0 0 C0.33 1.32 0.66 2.64 1 4 C1.66 4 2.32 4 3 4 C3 2.68 3 1.36 3 0 C3.66 0 4.32 0 5 0 C5 1.32 5 2.64 5 4 C5.99 4.33 6.98 4.66 8 5 C5.36 5.33 2.72 5.66 0 6 C0 4.02 0 2.04 0 0 Z " fill="#717170" transform="translate(47,112)"/>
<path d="M0 0 C0.66 0 1.32 0 2 0 C2.66 0.66 3.32 1.32 4 2 C4.33 1.34 4.66 0.68 5 0 C5.66 0 6.32 0 7 0 C6.34 1.98 5.68 3.96 5 6 C4.01 6 3.02 6 2 6 C1.34 4.02 0.68 2.04 0 0 Z " fill="#31302F" transform="translate(86,80)"/>
<path d="M0 0 C0.5625 1.9375 0.5625 1.9375 1 4 C0 5 0 5 -2.5625 5.0625 C-3.7690625 5.0315625 -3.7690625 5.0315625 -5 5 C-5.33 3.68 -5.66 2.36 -6 1 C-3.03 1.495 -3.03 1.495 0 2 C0 1.34 0 0.68 0 0 Z " fill="#D8D8D7" transform="translate(93,121)"/>
<path d="M0 0 C6.27 0 12.54 0 19 0 C19 0.33 19 0.66 19 1 C16.56257869 1.16789126 14.12507454 1.33436133 11.6875 1.5 C10.99720703 1.54769531 10.30691406 1.59539063 9.59570312 1.64453125 C6.72337641 1.83879489 3.87986212 2 1 2 C0.67 1.34 0.34 0.68 0 0 Z " fill="#2E2D2C" transform="translate(103,57)"/>
<path d="M0 0 C6.625 0.75 6.625 0.75 10 3 C10 3.66 10 4.32 10 5 C8.51800098 4.55090939 7.03944764 4.09043436 5.5625 3.625 C4.73878906 3.36976562 3.91507812 3.11453125 3.06640625 2.8515625 C1 2 1 2 0 0 Z " fill="#E1E1E1" transform="translate(117,50)"/>
<path d="M0 0 C0.33 0.66 0.66 1.32 1 2 C1.66 2 2.32 2 3 2 C3 2.99 3 3.98 3 5 C0.69 4.67 -1.62 4.34 -4 4 C-4 3.01 -4 2.02 -4 1 C-2.68 1.33 -1.36 1.66 0 2 C0 1.34 0 0.68 0 0 Z " fill="#242322" transform="translate(120,45)"/>
<path d="M0 0 C0.33 0 0.66 0 1 0 C1.33 3.3 1.66 6.6 2 10 C1.34 10 0.68 10 0 10 C-0.33 10.66 -0.66 11.32 -1 12 C-1.02698189 10.37509046 -1.04638757 8.75005367 -1.0625 7.125 C-1.07410156 6.22007813 -1.08570313 5.31515625 -1.09765625 4.3828125 C-1 2 -1 2 0 0 Z " fill="#FCFCFC" transform="translate(45,76)"/>
<path d="M0 0 C1.65 0 3.3 0 5 0 C5 1.32 5 2.64 5 4 C4.34 4 3.68 4 3 4 C2.34 4.66 1.68 5.32 1 6 C0 5 0 5 -0.0625 2.4375 C-0.041875 1.633125 -0.02125 0.82875 0 0 Z " fill="#EFEFEF" transform="translate(137,36)"/>
<path d="M0 0 C0 0.99 0 1.98 0 3 C-1.75 4.60546875 -1.75 4.60546875 -4 6.1875 C-4.7425 6.71730469 -5.485 7.24710938 -6.25 7.79296875 C-6.8275 8.19128906 -7.405 8.58960938 -8 9 C-8.66 8.67 -9.32 8.34 -10 8 C-6.7 5.36 -3.4 2.72 0 0 Z " fill="#696867" transform="translate(134,172)"/>
<path d="M0 0 C1.32 0 2.64 0 4 0 C4 1.98 4 3.96 4 6 C2.68 6.33 1.36 6.66 0 7 C0 4.69 0 2.38 0 0 Z " fill="#E7E7E7" transform="translate(51,118)"/>
<path d="M0 0 C0.66 0 1.32 0 2 0 C2 2.31 2 4.62 2 7 C0.35 7.33 -1.3 7.66 -3 8 C-3 7.34 -3 6.68 -3 6 C-2.01 6 -1.02 6 0 6 C0 4.02 0 2.04 0 0 Z " fill="#403F3E" transform="translate(96,80)"/>
<path d="M0 0 C0.66 0 1.32 0 2 0 C2 2.97 2 5.94 2 9 C1.01 9 0.02 9 -1 9 C-1 8.01 -1 7.02 -1 6 C-0.34 6 0.32 6 1 6 C1 5.01 1 4.02 1 3 C-0.32 2.67 -1.64 2.34 -3 2 C-2.01 2 -1.02 2 0 2 C0 1.34 0 0.68 0 0 Z " fill="#D2D2D2" transform="translate(110,79)"/>
<path d="M0 0 C0.33 0.66 0.66 1.32 1 2 C1.66 2 2.32 2 3 2 C3.66 3.65 4.32 5.3 5 7 C4.34 7.66 3.68 8.32 3 9 C1.68 6.36 0.36 3.72 -1 1 C-0.67 0.67 -0.34 0.34 0 0 Z " fill="#323030" transform="translate(70,145)"/>
<path d="M0 0 C-0.33 0.99 -0.66 1.98 -1 3 C-4.3 2.34 -7.6 1.68 -11 1 C-11 0.67 -11 0.34 -11 0 C-7.01803543 -1.05404945 -4.01804691 -0.84098656 0 0 Z " fill="#E3E3E3" transform="translate(104,126)"/>
<path d="M0 0 C0.33 0.66 0.66 1.32 1 2 C3.02463255 2.65213292 3.02463255 2.65213292 5 3 C4.38125 3.144375 3.7625 3.28875 3.125 3.4375 C0.96741678 3.93152225 0.96741678 3.93152225 -1 5 C-1.99 4.67 -2.98 4.34 -4 4 C-4 3.01 -4 2.02 -4 1 C-2.68 1.33 -1.36 1.66 0 2 C0 1.34 0 0.68 0 0 Z " fill="#999898" transform="translate(91,115)"/>
<path d="M0 0 C0.99 0 1.98 0 3 0 C2.67 1.65 2.34 3.3 2 5 C1.34 5 0.68 5 0 5 C-0.33 5.99 -0.66 6.98 -1 8 C-1.625 5.125 -1.625 5.125 -2 2 C-1.34 1.34 -0.68 0.68 0 0 Z " fill="#868585" transform="translate(107,112)"/>
<path d="M0 0 C2.91517292 1.07401108 4.77810176 1.77810176 7 4 C6.01 4 5.02 4 4 4 C3.67 4.66 3.34 5.32 3 6 C3 5.34 3 4.68 3 4 C1.68 3.67 0.36 3.34 -1 3 C-0.67 2.01 -0.34 1.02 0 0 Z " fill="#383837" transform="translate(100,27)"/>
<path d="M0 0 C3.26954202 0.56371414 4.82575883 1.49962266 7 4 C6.67 4.99 6.34 5.98 6 7 C4.35 5.35 2.7 3.7 1 2 C0.67 2.66 0.34 3.32 0 4 C0 2.68 0 1.36 0 0 Z " fill="#898888" transform="translate(123,165)"/>
<path d="M0 0 C0.99 0.33 1.98 0.66 3 1 C3 2.65 3 4.3 3 6 C2.01 6.33 1.02 6.66 0 7 C0 4.69 0 2.38 0 0 Z " fill="#A5A5A5" transform="translate(107,144)"/>
<path d="M0 0 C1.65 0.33 3.3 0.66 5 1 C4.67 2.32 4.34 3.64 4 5 C1.525 4.01 1.525 4.01 -1 3 C-0.67 2.01 -0.34 1.02 0 0 Z " fill="#D7D7D7" transform="translate(61,38)"/>
<path d="M0 0 C0.66 0 1.32 0 2 0 C2 0.99 2 1.98 2 3 C1.34 3 0.68 3 0 3 C0 3.66 0 4.32 0 5 C0.99 4.67 1.98 4.34 3 4 C2.67 4.99 2.34 5.98 2 7 C0.68 7 -0.64 7 -2 7 C-1.34 4.69 -0.68 2.38 0 0 Z " fill="#6D6D6C" transform="translate(109,174)"/>
<path d="M0 0 C0.99 0.33 1.98 0.66 3 1 C3.33 2.65 3.66 4.3 4 6 C3.01 6 2.02 6 1 6 C0.67 4.02 0.34 2.04 0 0 Z " fill="#E9E9E9" transform="translate(114,173)"/>
<path d="M0 0 C0.99 0.66 1.98 1.32 3 2 C3 2.66 3 3.32 3 4 C2.34 4 1.68 4 1 4 C0.67 5.32 0.34 6.64 0 8 C-0.66 5.69 -1.32 3.38 -2 1 C-1.34 0.67 -0.68 0.34 0 0 Z " fill="#3C3B3A" transform="translate(99,104)"/>
<path d="M0 0 C1.98 0.66 3.96 1.32 6 2 C4 4 4 4 0.875 4.125 C-0.548125 4.063125 -0.548125 4.063125 -2 4 C-1.34 2.68 -0.68 1.36 0 0 Z " fill="#666564" transform="translate(151,79)"/>
<path d="M0 0 C0.99 0.33 1.98 0.66 3 1 C1.35 2.65 -0.3 4.3 -2 6 C-2.99 5.67 -3.98 5.34 -5 5 C-3.35 3.35 -1.7 1.7 0 0 Z " fill="#121110" transform="translate(82,28)"/>
<path d="M0 0 C0.268125 0.639375 0.53625 1.27875 0.8125 1.9375 C1.88667752 4.33131686 1.88667752 4.33131686 5 5 C2.69 5.66 0.38 6.32 -2 7 C-1.34 4.69 -0.68 2.38 0 0 Z " fill="#91908F" transform="translate(113,175)"/>
<path d="M0 0 C2.31 0 4.62 0 7 0 C7 0.66 7 1.32 7 2 C4.69 2.33 2.38 2.66 0 3 C0 2.01 0 1.02 0 0 Z " fill="#E8E8E8" transform="translate(106,124)"/>
<path d="M0 0 C0.99 0.33 1.98 0.66 3 1 C3 2.65 3 4.3 3 6 C2.01 6 1.02 6 0 6 C0 4.02 0 2.04 0 0 Z " fill="#1C1918" transform="translate(107,117)"/>
<path d="M0 0 C2.5 1.3125 2.5 1.3125 5 3 C5 3.99 5 4.98 5 6 C0.125 4.25 0.125 4.25 -1 2 C-0.67 1.34 -0.34 0.68 0 0 Z " fill="#C8C8C8" transform="translate(124,70)"/>
</svg>
